<svg width="100%" height="100%" viewBox="0 0 95 20" fill="currentColor" xmlns="http://www.w3.org/2000/svg">
<g clip-path="url(#clip0_866_44315)">
<path d="M20.0529 15.5438C12.5077 14.6933 5.97686 10.4486 2.01309 4.37815H20.0529V0.671875H0.179462C0.0780269 0.671875 0 0.749902 0 0.851337V7.63967C0 7.87375 0.0780269 8.10784 0.218475 8.2951C0.95973 9.25483 1.76341 10.1677 2.62951 11.0338C7.36574 15.7701 13.4674 18.6337 20.0451 19.2735V15.536L20.0529 15.5438Z" fill="currentColor"></path>

</g>
<path fill-rule="evenodd" clip-rule="evenodd" d="M31.2886 19.3359H43.9055V17.1199H33.801V10.8934H42.8287V8.75546H33.801V2.88784H43.9055V0.671875H31.2886V19.3359ZM55.2896 5.58757C54.5406 5.16622 53.6433 4.94775 52.6289 4.94775C51.6146 4.94775 50.647 5.18183 49.8746 5.63438C49.1411 6.06353 48.5637 6.66434 48.1658 7.4212V5.25205H45.6533V19.3281H48.1658V11.2133C48.1658 10.4564 48.314 9.762 48.6183 9.14559C48.9148 8.53698 49.3518 8.04541 49.9136 7.69429C50.4754 7.34317 51.1542 7.16371 51.9267 7.16371C52.941 7.16371 53.7369 7.48362 54.2831 8.12344C54.8371 8.76326 55.118 9.69178 55.118 10.8778V19.3203H57.6304V10.5891C57.6304 9.35627 57.4276 8.31071 57.0218 7.47582C56.6161 6.63313 56.0309 5.99331 55.2818 5.57196L55.2896 5.58757ZM68.7025 6.2508C69.1472 6.63313 69.5139 7.08568 69.8104 7.59286V0.671875H72.3229V19.3359H69.8104V17.0029C69.4983 17.5413 69.1082 18.0094 68.6478 18.3918C68.1485 18.7975 67.5867 19.1174 66.9703 19.3281C66.3617 19.5388 65.7062 19.648 65.0352 19.648C63.9038 19.648 62.8738 19.3515 61.9687 18.7663C61.0636 18.1811 60.3458 17.3306 59.8308 16.2226C59.3158 15.1225 59.0583 13.7804 59.0583 12.3135C59.0583 10.8466 59.308 9.53573 59.8074 8.42775C60.3068 7.31196 61.0168 6.44586 61.9297 5.84506C62.8348 5.24425 63.8882 4.93994 65.0664 4.93994C65.7765 4.93994 66.4475 5.05698 67.0639 5.27546C67.6803 5.50174 68.2343 5.82165 68.7181 6.23519L68.7025 6.2508ZM69.826 12.3057C69.826 11.2991 69.6544 10.4018 69.3189 9.62936C68.9834 8.8647 68.4996 8.25609 67.8832 7.83474C67.2668 7.40559 66.5255 7.19492 65.714 7.19492C64.9025 7.19492 64.1847 7.40559 63.5683 7.81133C62.9441 8.22488 62.4525 8.81788 62.1092 9.58254C61.7581 10.3472 61.5786 11.2523 61.5786 12.2901C61.5786 13.3278 61.7581 14.2485 62.1092 15.021C62.4603 15.7935 62.9597 16.3865 63.5839 16.8C64.2081 17.2136 64.9182 17.4164 65.7218 17.4164C66.5255 17.4164 67.2512 17.2058 67.8598 16.7922C68.4762 16.3787 68.9599 15.7779 69.3033 15.0054C69.6466 14.2329 69.8182 13.3044 69.8182 12.2979L69.826 12.3057ZM81.3194 5.18183C80.3363 5.18183 79.478 5.41591 78.7835 5.87627C78.1281 6.30541 77.6053 6.94524 77.223 7.76452V5.25985H74.7105V19.3359H77.223V11.7907C77.223 10.9402 77.3947 10.1834 77.7224 9.55133C78.0501 8.91932 78.5338 8.41994 79.1503 8.07662C79.7667 7.7255 80.5001 7.55384 81.3194 7.55384C81.4364 7.55384 81.7642 7.55384 81.8734 7.56945C81.9046 7.56945 81.9592 7.56945 82.0216 7.58506H82.0919C82.2167 7.60066 82.3494 7.60846 82.404 7.61627L82.482 7.63187V5.22084H82.4274C82.2947 5.19743 81.5925 5.18963 81.3272 5.18963L81.3194 5.18183ZM92.0637 5.53295C92.9064 5.91528 93.554 6.47707 93.9988 7.19492C94.4435 7.91277 94.6698 8.77106 94.6698 9.7386V19.3437H92.2276V17.0341C91.8218 17.8144 91.2444 18.4386 90.4954 18.8911C89.7151 19.3671 88.7554 19.609 87.6396 19.609C86.7267 19.609 85.9152 19.4373 85.2364 19.094C84.5575 18.7507 84.0269 18.2591 83.6602 17.6349C83.2935 17.0107 83.114 16.2772 83.114 15.458C83.114 14.2564 83.5042 13.3044 84.2844 12.6412C85.0569 11.978 86.1571 11.5332 87.5537 11.3225L90.8543 10.8466C91.2132 10.7998 91.4941 10.7295 91.6892 10.6437C91.8764 10.5579 92.0169 10.4486 92.0949 10.3082C92.1807 10.1677 92.2198 9.97268 92.2198 9.7386C92.2198 9.20801 92.0949 8.73985 91.8374 8.34192C91.5877 7.94398 91.2132 7.63967 90.745 7.4368C90.2691 7.22613 89.6917 7.1247 89.0597 7.1247C88.4277 7.1247 87.8737 7.23393 87.4211 7.45241C86.9607 7.67088 86.6018 7.98299 86.3365 8.37313C86.0712 8.77106 85.923 9.23923 85.8762 9.77761V9.84003H83.4417V9.76981C83.5198 8.78667 83.7929 7.92837 84.2688 7.21053C84.7448 6.50048 85.4002 5.93869 86.2273 5.55636C87.0466 5.17403 88.0063 4.97896 89.0831 4.97896C90.2301 4.97896 91.2288 5.17403 92.0637 5.55636V5.53295ZM92.2276 12.3213C92.1027 12.3993 91.9545 12.4695 91.775 12.5242C91.5409 12.6022 91.2522 12.6646 90.9167 12.7192L87.8737 13.1718C87.1948 13.2732 86.6408 13.4995 86.2195 13.8428C85.8059 14.1861 85.6031 14.6855 85.6031 15.3409C85.6031 15.7857 85.7123 16.1758 85.923 16.5035C86.1337 16.8234 86.438 17.0809 86.8359 17.2604C87.2338 17.4398 87.702 17.5335 88.2404 17.5335C89.0987 17.5335 89.8321 17.3228 90.4329 16.9093C91.0337 16.4957 91.4863 15.9339 91.7828 15.2473C92.0793 14.5529 92.2354 13.796 92.2354 13.0001V12.3291L92.2276 12.3213Z" fill="currentColor"></path><defs>
<clipPath id="clip0_866_44315">
<rect width="94.67" height="18.9761" fill="currentColor" transform="translate(0 0.671875)"></rect>
</clipPath>
</defs>
</svg>