<?xml version="1.0" encoding="UTF-8"?>
<svg width="600" height="100" version="1.1" xmlns="http://www.w3.org/2000/svg">
 <path d="m77.197 75.996c0 1.88-1.4929 3.3572-3.34 3.3572h-60.264c-1.8457 0-3.3457-1.4729-3.3457-3.3572v-60.237c0-1.8386 1.5-3.3472 3.3457-3.3472h60.262c1.8472 0 3.3414 1.5086 3.3414 3.3472v60.237z" stroke="#fff"/>
 <path d="m37.967 39.176c-0.61428 0-1.1129 0.50286-1.1129 1.11v15.657c0 0.61429 0.35286 1.4886 0.78715 1.9043l16.326 16.27c0.44572 0.44429 1.2957 0.79858 1.9186 0.79858h15.666c0.61572 0 1.1214-0.50858 1.1214-1.1043v-15.629c0-0.60429-0.35286-1.4872-0.77714-1.8914l-16.344-16.321c-0.43428-0.43429-1.2871-0.78715-1.9057-0.78715z"/>
 <path d="m15.757 16.846c-0.60572 0-1.1129 0.49714-1.1129 1.1072v55.852c0 0.62 0.34714 0.76286 0.78286 0.31571l16.18-16.279c0.42857-0.42285 0.78-1.29 0.78-1.9086v-20.127c0-0.62429 0.50286-1.1243 1.1229-1.1243h20.15c0.62143 0 1.47-0.34572 1.9057-0.78143l16.321-16.264c0.43572-0.43 0.28143-0.78286-0.33428-0.78286h-55.796z"/>
 <path d="m77.197 75.996c0 1.88-1.4929 3.3572-3.34 3.3572h-60.264c-1.8457 0-3.3457-1.4729-3.3457-3.3572v-60.237c0-1.8386 1.5-3.3472 3.3457-3.3472h60.262c1.8472 0 3.3414 1.5086 3.3414 3.3472v60.237z" fill="#116a3e" stroke="#fff" stroke-width=".85"/>
 <path d="m15.757 16.846c-0.60572 0-1.1129 0.49714-1.1129 1.1072v55.852c0 0.62 0.34714 0.76286 0.78286 0.31571l16.18-16.279c0.42857-0.42285 0.78-1.29 0.78-1.9086v-20.127c0-0.62429 0.50286-1.1243 1.1229-1.1243h20.15c0.62143 0 1.47-0.34572 1.9057-0.78143l16.321-16.264c0.43572-0.43 0.28143-0.78286-0.33428-0.78286h-55.796zm22.217 22.324c-0.61428 0-1.1129 0.50286-1.1129 1.11v15.657c0 0.61429 0.35286 1.4886 0.78715 1.9043l16.326 16.27c0.44572 0.44429 1.2957 0.79858 1.9186 0.79858h15.666c0.61572 0 1.1214-0.50858 1.1214-1.1043v-15.629c0-0.60429-0.35286-1.4872-0.77714-1.8914l-16.344-16.321c-0.43428-0.43429-1.2871-0.78715-1.9057-0.78715z" fill="#fff"/>
 <path d="m562.99 47.986h7.5686v4.0443h0.18143c2.0229-3.2557 5.5057-4.8414 8.8872-4.8414 8.4772 0 10.626 4.7843 10.626 11.997v17.864h-8.0029v-16.417c0-4.7757-1.4043-7.1386-5.1114-7.1386-4.3386 0-6.1729 2.4172-6.1729 8.3143v15.241h-7.9772zm-13.15 17.823c0 1.7714-0.22715 6.6943-6.47 6.6943-2.59 0-4.8843-0.72858-4.8843-3.7 0-2.92 2.2557-3.77 4.7372-4.2886 2.4729-0.46858 5.2843-0.50429 6.6186-1.69zm-10.451-8.87c0.26857-3.1614 2.2386-4.4 5.3014-4.4 2.7857 0 5.1514 0.50572 5.1514 3.9429 0 3.2743-4.5429 3.0743-9.4315 3.82-4.97 0.68143-9.9 2.26-9.9 8.8243 0 5.9714 4.3672 8.7443 9.9 8.7443 3.5214 0 7.2657-0.98571 9.79-3.6329 0.0557 0.97857 0.28143 1.9286 0.54714 2.8186h8.1172c-0.74-1.1771-1.0257-3.7929-1.0257-6.46v-15.14c0-6.9657-6.9772-8.2614-12.779-8.2614-6.5043 0-13.217 2.2529-13.673 9.7443zm-30.64 10.674c0.0543 3.4914 3 4.8872 6.1372 4.8872 2.3071 0 5.2257-0.89 5.2257-3.6986 0-2.4257-3.3072-3.2629-9.0543-4.49-4.6029-1.0286-9.1986-2.6657-9.1986-7.7814 0-7.4172 6.4-9.3414 12.634-9.3414 6.3657 0 12.22 2.1529 12.837 9.29h-7.6043c-0.21143-3.0857-2.58-3.9443-5.4514-3.9443-1.8114 0-4.4243 0.35285-4.4243 2.71 0 2.8686 4.4729 3.2672 9.0443 4.3057 4.6386 1.0829 9.2086 2.7643 9.2086 8.17 0 7.6414-6.6314 10.146-13.266 10.146-6.7557 0-13.327-2.5672-13.676-10.256zm-29.147 0c0.0557 3.4914 2.9814 4.8872 6.1329 4.8872 2.3286 0 5.2414-0.89 5.2414-3.6986 0-2.4257-3.3214-3.2629-9.0614-4.49-4.6129-1.0286-9.24-2.6657-9.24-7.7814 0-7.4172 6.4372-9.3414 12.66-9.3414 6.3543 0 12.207 2.1529 12.829 9.29h-7.5886c-0.21143-3.0857-2.5772-3.9443-5.4572-3.9443-1.8 0-4.4386 0.35285-4.4386 2.71 0 2.8686 4.5014 3.2672 9.05 4.3057 4.6714 1.0829 9.23 2.7643 9.23 8.17 0 7.6414-6.63 10.146-13.269 10.146-6.7329 0-13.331-2.5672-13.677-10.256zm-19.319-1.8043c0 1.7714-0.22 6.6943-6.4714 6.6943-2.5757 0-4.8814-0.72858-4.8814-3.7 0-2.92 2.2257-3.77 4.7057-4.2886 2.4829-0.46858 5.2943-0.50429 6.6472-1.69zm-10.457-8.87c0.27571-3.1614 2.2457-4.4 5.2857-4.4 2.8114 0 5.1772 0.50572 5.1772 3.9429 0 3.2743-4.5443 3.0743-9.4472 3.82-4.95 0.68143-9.9086 2.26-9.9086 8.8243 0 5.9714 4.3886 8.7443 9.9086 8.7443 3.55 0 7.2572-0.98571 9.7857-3.6329 0.0514 0.97857 0.29715 1.9286 0.56429 2.8186h8.0886c-0.71857-1.1771-0.99286-3.7929-0.99286-6.46v-15.14c0-6.9657-6.9757-8.2614-12.77-8.2614-6.5229 0-13.219 2.2529-13.669 9.7443zm-38.157-20.03h7.99v21.521l10.071-10.446h9.4472l-10.977 10.686 12.2 18.383h-9.6872l-7.9629-13.003-3.1 3.0157v9.9857h-7.9872zm-22.661 30.704c0.0557 3.4914 2.9729 4.8872 6.1457 4.8872 2.2957 0 5.2172-0.89 5.2172-3.6986 0-2.4257-3.3129-3.2629-9.0657-4.49-4.6043-1.0286-9.2314-2.6657-9.2314-7.7814 0-7.4172 6.4386-9.3414 12.664-9.3414 6.3657 0 12.204 2.1529 12.827 9.29h-7.6114c-0.20857-3.0857-2.5529-3.9443-5.4457-3.9443-1.7757 0-4.4286 0.35285-4.4286 2.71 0 2.8686 4.4843 3.2672 9.0429 4.3057 4.6757 1.0829 9.2272 2.7643 9.2272 8.17 0 7.6414-6.6372 10.146-13.273 10.146-6.7272 0-13.33-2.5672-13.676-10.256zm-24.914 2.5814c-4.9043 0-6.47-4.5614-6.47-8.7072 0-4.3357 1.9714-8.28 6.47-8.28 5.1786 0 6.8114 4.2329 6.8114 8.9472-7e-3 4.1529-2.2714 8.04-6.8114 8.04zm14.397-22.209h-7.5857v3.8886h-0.11143c-1.9257-3.3829-4.8429-4.6786-8.6614-4.6786-8.1514 0-12.503 6.87-12.503 14.401 0 7.9743 3.74 14.617 12.431 14.617 3.4986 0 6.9672-1.4586 8.7229-4.4814h0.11286v3.82c0.0686 4.1457-1.9786 7.1757-6.42 7.1757-2.8257 0-5.2414-0.98429-5.9614-3.9914h-7.92c0.39571 6.6386 7.0686 9.3529 12.821 9.3529 13.379 0 15.073-8.12 15.073-12.876v-27.229zm-59.739 0h7.5872v4.0443h0.15143c2.0472-3.2557 5.5172-4.8414 8.8986-4.8414 8.4829 0 10.643 4.7843 10.643 11.997v17.864h-8.0057v-16.417c0-4.7757-1.4157-7.1386-5.11-7.1386-4.3357 0-6.1814 2.4172-6.1814 8.3143v15.241h-7.9886zm-13.246 0h7.9772v29.069h-7.9772zm7.9743-4.5029h-7.9786v-6.5743h7.9786zm-30.077 4.5029h7.5843v5.4172h0.11571c1.4743-3.6614 5.41-6.2086 9.2715-6.2086 0.56 0 1.2257 0.12286 1.7357 0.28v7.4229c-0.71857-0.15857-1.8886-0.26857-2.8714-0.26857-5.8257 0-7.8557 4.1972-7.8557 9.3243v13.1h-7.9886zm-31.549-11.077h7.9872v21.521l10.066-10.446h9.4529l-10.971 10.686 12.216 18.383h-9.6914l-7.99-13.003-3.09 3.0157v9.9857h-7.9872zm-12.816 28.9c0 1.7714-0.23143 6.6943-6.4814 6.6943-2.5814 0-4.8857-0.72858-4.8857-3.7 0-2.92 2.24-3.77 4.7243-4.2886 2.4729-0.46858 5.29-0.50429 6.6429-1.69zm-2.9857-22.326h7.5872v-6.5743h-7.5872zm-11.6 0h7.5972v-6.5743h-7.5972zm4.1143 13.456c0.28857-3.1614 2.2543-4.4 5.2929-4.4 2.8072 0 5.1743 0.50572 5.1743 3.9429 0 3.2743-4.5614 3.0743-9.4514 3.82-4.9486 0.68143-9.9043 2.26-9.9043 8.8243 0 5.9714 4.3886 8.7443 9.9043 8.7443 3.5414 0 7.2529-0.98571 9.7914-3.6329 0.0529 0.97857 0.27857 1.9286 0.55428 2.8186h8.1086c-0.73715-1.1771-1.0143-3.7929-1.0143-6.46v-15.14c0-6.9657-6.9814-8.2614-12.779-8.2614-6.5172 0-13.219 2.2529-13.661 9.7443zm-30.627 10.674c0.0571 3.4914 2.9872 4.8872 6.13 4.8872 2.3157 0 5.2329-0.89 5.2329-3.6986 0-2.4257-3.3129-3.2629-9.0529-4.49-4.6057-1.0286-9.2272-2.6657-9.2272-7.7814 0-7.4172 6.4143-9.3414 12.654-9.3414 6.3586 0 12.204 2.1529 12.829 9.29h-7.5929c-0.22143-3.0857-2.59-3.9443-5.4572-3.9443-1.7972 0-4.4386 0.35285-4.4386 2.71 0 2.8686 4.5014 3.2672 9.0457 4.3057 4.6757 1.0829 9.2343 2.7643 9.2343 8.17 0 7.6414-6.6343 10.146-13.277 10.146-6.7472 0-13.326-2.5672-13.664-10.256zm-27.529-19.627h7.5772v5.4172h0.11429c1.4657-3.6614 5.4072-6.2086 9.2843-6.2086 0.56571 0 1.2329 0.12286 1.7414 0.28v7.4229c-0.72429-0.15857-1.9114-0.26857-2.87-0.26857-5.84 0-7.8672 4.1972-7.8672 9.3243v13.1h-7.9843v-29.067zm-25.201 14.576c0-4.6872 1.6243-9.3543 7.0243-9.3543 5.4629 0 7.0872 4.6672 7.0872 9.3543 0 4.6129-1.6243 9.2743-7.0872 9.2743-5.3972-6e-3 -7.0243-4.6614-7.0243-9.2743zm9.0486-19.079h7.5972v-6.5743h-7.5972zm-11.57 0h7.58v-6.5743h-7.58zm-5.47 19.079c0 9.2129 5.9029 15.314 15.016 15.314 9.1729 0 15.081-6.1014 15.081-15.314 0-9.3014-5.9057-15.373-15.081-15.373-9.11 0-15.016 6.0714-15.016 15.373zm-28.916-25.653h28.232v7.4243h-19.406v9.2743h16.819v6.8686h-16.819v16.579h-8.8272v-40.146zm454.69 11.077h7.5686v4.0443h0.18143c2.0229-3.2557 5.5057-4.8414 8.8872-4.8414 8.4772 0 10.626 4.7843 10.626 11.997v17.864h-8.0029v-16.417c0-4.7757-1.4043-7.1386-5.1114-7.1386-4.3386 0-6.1729 2.4172-6.1729 8.3143v15.241h-7.9772zm-13.15 17.823c0 1.7714-0.22715 6.6943-6.47 6.6943-2.59 0-4.8843-0.72858-4.8843-3.7 0-2.92 2.2557-3.77 4.7372-4.2886 2.4729-0.46858 5.2843-0.50429 6.6186-1.69zm-10.451-8.87c0.26857-3.1614 2.2386-4.4 5.3014-4.4 2.7857 0 5.1514 0.50572 5.1514 3.9429 0 3.2743-4.5429 3.0743-9.4315 3.82-4.97 0.68143-9.9 2.26-9.9 8.8243 0 5.9714 4.3672 8.7443 9.9 8.7443 3.5214 0 7.2657-0.98571 9.79-3.6329 0.0557 0.97857 0.28143 1.9286 0.54714 2.8186h8.1172c-0.74-1.1771-1.0257-3.7929-1.0257-6.46v-15.14c0-6.9657-6.9772-8.2614-12.779-8.2614-6.5043 0-13.217 2.2529-13.673 9.7443zm-30.64 10.674c0.0543 3.4914 3 4.8872 6.1372 4.8872 2.3071 0 5.2257-0.89 5.2257-3.6986 0-2.4257-3.3072-3.2629-9.0543-4.49-4.6029-1.0286-9.1986-2.6657-9.1986-7.7814 0-7.4172 6.4-9.3414 12.634-9.3414 6.3657 0 12.22 2.1529 12.837 9.29h-7.6043c-0.21143-3.0857-2.58-3.9443-5.4514-3.9443-1.8114 0-4.4243 0.35285-4.4243 2.71 0 2.8686 4.4729 3.2672 9.0443 4.3057 4.6386 1.0829 9.2086 2.7643 9.2086 8.17 0 7.6414-6.6314 10.146-13.266 10.146-6.7557 0-13.327-2.5672-13.676-10.256zm-29.147 0c0.0557 3.4914 2.9814 4.8872 6.1329 4.8872 2.3286 0 5.2414-0.89 5.2414-3.6986 0-2.4257-3.3214-3.2629-9.0614-4.49-4.6129-1.0286-9.24-2.6657-9.24-7.7814 0-7.4172 6.4372-9.3414 12.66-9.3414 6.3543 0 12.207 2.1529 12.829 9.29h-7.5886c-0.21143-3.0857-2.5772-3.9443-5.4572-3.9443-1.8 0-4.4386 0.35285-4.4386 2.71 0 2.8686 4.5014 3.2672 9.05 4.3057 4.6714 1.0829 9.23 2.7643 9.23 8.17 0 7.6414-6.63 10.146-13.269 10.146-6.7329 0-13.331-2.5672-13.677-10.256zm-19.319-1.8043c0 1.7714-0.22 6.6943-6.4714 6.6943-2.5757 0-4.8814-0.72858-4.8814-3.7 0-2.92 2.2257-3.77 4.7057-4.2886 2.4829-0.46858 5.2943-0.50429 6.6472-1.69zm-10.457-8.87c0.27571-3.1614 2.2457-4.4 5.2857-4.4 2.8114 0 5.1772 0.50572 5.1772 3.9429 0 3.2743-4.5443 3.0743-9.4472 3.82-4.95 0.68143-9.9086 2.26-9.9086 8.8243 0 5.9714 4.3886 8.7443 9.9086 8.7443 3.55 0 7.2572-0.98571 9.7857-3.6329 0.0514 0.97857 0.29715 1.9286 0.56429 2.8186h8.0886c-0.71857-1.1771-0.99286-3.7929-0.99286-6.46v-15.14c0-6.9657-6.9757-8.2614-12.77-8.2614-6.5229 0-13.219 2.2529-13.669 9.7443zm-38.157-20.03h7.99v21.521l10.071-10.446h9.4472l-10.977 10.686 12.2 18.383h-9.6872l-7.9629-13.003-3.1 3.0157v9.9857h-7.9872zm-22.661 30.704c0.0557 3.4914 2.9729 4.8872 6.1457 4.8872 2.2957 0 5.2172-0.89 5.2172-3.6986 0-2.4257-3.3129-3.2629-9.0657-4.49-4.6043-1.0286-9.2314-2.6657-9.2314-7.7814 0-7.4172 6.4386-9.3414 12.664-9.3414 6.3657 0 12.204 2.1529 12.827 9.29h-7.6114c-0.20857-3.0857-2.5529-3.9443-5.4457-3.9443-1.7757 0-4.4286 0.35285-4.4286 2.71 0 2.8686 4.4843 3.2672 9.0429 4.3057 4.6757 1.0829 9.2272 2.7643 9.2272 8.17 0 7.6414-6.6372 10.146-13.273 10.146-6.7272 0-13.33-2.5672-13.676-10.256zm-24.914 2.5814c-4.9043 0-6.47-4.5614-6.47-8.7072 0-4.3357 1.9714-8.28 6.47-8.28 5.1786 0 6.8114 4.2329 6.8114 8.9472-7e-3 4.1529-2.2714 8.04-6.8114 8.04zm14.397-22.209h-7.5857v3.8886h-0.11143c-1.9257-3.3829-4.8429-4.6786-8.6614-4.6786-8.1514 0-12.503 6.87-12.503 14.401 0 7.9743 3.74 14.617 12.431 14.617 3.4986 0 6.9672-1.4586 8.7229-4.4814h0.11286v3.82c0.0686 4.1457-1.9786 7.1757-6.42 7.1757-2.8257 0-5.2414-0.98429-5.9614-3.9914h-7.92c0.39571 6.6386 7.0686 9.3529 12.821 9.3529 13.379 0 15.073-8.12 15.073-12.876v-27.229zm-59.739 0h7.5872v4.0443h0.15143c2.0472-3.2557 5.5172-4.8414 8.8986-4.8414 8.4829 0 10.643 4.7843 10.643 11.997v17.864h-8.0057v-16.417c0-4.7757-1.4157-7.1386-5.11-7.1386-4.3357 0-6.1814 2.4172-6.1814 8.3143v15.241h-7.9886zm-13.246 0h7.9772v29.069h-7.9772zm7.9743-4.5029h-7.9786v-6.5743h7.9786zm-30.077 4.5029h7.5843v5.4172h0.11571c1.4743-3.6614 5.41-6.2086 9.2715-6.2086 0.56 0 1.2257 0.12286 1.7357 0.28v7.4229c-0.71857-0.15857-1.8886-0.26857-2.8714-0.26857-5.8257 0-7.8557 4.1972-7.8557 9.3243v13.1h-7.9886zm-31.549-11.077h7.9872v21.521l10.066-10.446h9.4529l-10.971 10.686 12.216 18.383h-9.6914l-7.99-13.003-3.09 3.0157v9.9857h-7.9872zm-12.816 28.9c0 1.7714-0.23143 6.6943-6.4814 6.6943-2.5814 0-4.8857-0.72858-4.8857-3.7 0-2.92 2.24-3.77 4.7243-4.2886 2.4729-0.46858 5.29-0.50429 6.6429-1.69zm-2.9857-22.326h7.5872v-6.5743h-7.5872zm-11.6 0h7.5972v-6.5743h-7.5972zm4.1143 13.456c0.28857-3.1614 2.2543-4.4 5.2929-4.4 2.8072 0 5.1743 0.50572 5.1743 3.9429 0 3.2743-4.5614 3.0743-9.4514 3.82-4.9486 0.68143-9.9043 2.26-9.9043 8.8243 0 5.9714 4.3886 8.7443 9.9043 8.7443 3.5414 0 7.2529-0.98571 9.7914-3.6329 0.0529 0.97857 0.27857 1.9286 0.55428 2.8186h8.1086c-0.73715-1.1771-1.0143-3.7929-1.0143-6.46v-15.14c0-6.9657-6.9814-8.2614-12.779-8.2614-6.5172 0-13.219 2.2529-13.661 9.7443zm-30.627 10.674c0.0571 3.4914 2.9872 4.8872 6.13 4.8872 2.3157 0 5.2329-0.89 5.2329-3.6986 0-2.4257-3.3129-3.2629-9.0529-4.49-4.6057-1.0286-9.2272-2.6657-9.2272-7.7814 0-7.4172 6.4143-9.3414 12.654-9.3414 6.3586 0 12.204 2.1529 12.829 9.29h-7.5929c-0.22143-3.0857-2.59-3.9443-5.4572-3.9443-1.7972 0-4.4386 0.35285-4.4386 2.71 0 2.8686 4.5014 3.2672 9.0457 4.3057 4.6757 1.0829 9.2343 2.7643 9.2343 8.17 0 7.6414-6.6343 10.146-13.277 10.146-6.7472 0-13.326-2.5672-13.664-10.256zm-27.529-19.627h7.5772v5.4172h0.11429c1.4657-3.6614 5.4072-6.2086 9.2843-6.2086 0.56571 0 1.2329 0.12286 1.7414 0.28v7.4229c-0.72429-0.15857-1.9114-0.26857-2.87-0.26857-5.84 0-7.8672 4.1972-7.8672 9.3243v13.1h-7.9843v-29.067zm-25.201 14.576c0-4.6872 1.6243-9.3543 7.0243-9.3543 5.4629 0 7.0872 4.6672 7.0872 9.3543 0 4.6129-1.6243 9.2743-7.0872 9.2743-5.3972-6e-3 -7.0243-4.6614-7.0243-9.2743zm9.0486-19.079h7.5972v-6.5743h-7.5972zm-11.57 0h7.58v-6.5743h-7.58zm-5.47 19.079c0 9.2129 5.9029 15.314 15.016 15.314 9.1729 0 15.081-6.1014 15.081-15.314 0-9.3014-5.9057-15.373-15.081-15.373-9.11 0-15.016 6.0714-15.016 15.373zm-28.916-25.653h28.232v7.4243h-19.406v9.2743h16.819v6.8686h-16.819v16.579h-8.8272v-40.146z"/>
</svg>
