<svg class="logo w-[110px] sm:w-auto" width="137" height="49" viewBox="0 0 137 49" fill="none" xmlns="http://www.w3.org/2000/svg" style="color: white;"><path d="M31.282 45.4236C37.2561 45.4236 42.0991 40.5806 42.0991 34.6065L31.282 34.6065L31.282 45.4236Z" fill="#1CE86C"></path><path d="M10.8171 3.03211C4.84301 3.03211 -8.46778e-07 7.87511 -1.89133e-06 13.8492L10.8171 13.8492L10.8171 3.03211Z" fill="#FAE54C"></path><path d="M4.38525 13.8492C4.38525 17.5628 7.26488 20.5734 10.8171 20.5734L10.8171 13.8492L4.38525 13.8492Z" fill="#FC9753"></path><path d="M10.8169 3.0321H20.5108C26.4594 3.0321 31.2817 7.90669 31.2817 13.9198V34.6064H21.5879C15.6392 34.6064 10.8169 29.7318 10.8169 23.7187V3.0321Z" fill="#1CE86C"></path><path d="M20.4649 22.6199C20.4649 29.2399 25.5696 34.6064 31.8669 34.6064C38.1643 34.6064 43.2686 29.2399 43.2686 22.6199L20.4649 22.6199Z" fill="#1E905D"></path><path d="M26.0198 13.9955C26.0198 16.9825 23.5983 19.404 20.6112 19.404C17.6241 19.404 15.2026 16.9825 15.2026 13.9955C15.2026 11.0084 17.6241 8.58691 20.6112 8.58691C23.5983 8.58691 26.0198 11.0084 26.0198 13.9955Z" fill="white"></path><path d="M26.0198 13.9955C26.0198 16.9825 23.5983 19.404 20.6112 19.404C17.6241 19.404 15.2026 16.9825 15.2026 13.9955C15.2026 11.0084 17.6241 8.58691 20.6112 8.58691C23.5983 8.58691 26.0198 11.0084 26.0198 13.9955Z" fill="white"></path><path d="M23.5346 14.1416C23.5346 15.7562 22.2257 17.0651 20.611 17.0651C18.9964 17.0651 17.6875 15.7562 17.6875 14.1416C17.6875 12.5269 18.9964 11.218 20.611 11.218C22.2257 11.218 23.5346 12.5269 23.5346 14.1416Z" fill="white"></path><path d="M23.5346 14.1416C23.5346 15.7562 22.2257 17.0651 20.611 17.0651C18.9964 17.0651 17.6875 15.7562 17.6875 14.1416C17.6875 12.5269 18.9964 11.218 20.611 11.218C22.2257 11.218 23.5346 12.5269 23.5346 14.1416Z" fill="#001E00"></path><path d="M56.1584 23.6431V0.359985H51.2703V23.6431H56.1584Z" fill="currentColor"></path><path d="M66.5179 19.6233C64.6849 19.6233 62.9161 18.3047 62.9161 15.6355C62.9161 12.9342 64.6849 11.68 66.5179 11.68C68.3831 11.68 70.1197 12.9342 70.1197 15.6355C70.1197 18.3369 68.3831 19.6233 66.5179 19.6233ZM66.5179 7.1777C61.7584 7.1777 58.0279 10.683 58.0279 15.6355C58.0279 20.588 61.7584 24.1255 66.5179 24.1255C71.3096 24.1255 75.0079 20.588 75.0079 15.6355C75.0079 10.683 71.3096 7.1777 66.5179 7.1777Z" fill="currentColor"></path><path d="M84.2004 19.6233C82.3673 19.6233 80.5986 18.3047 80.5986 15.6355C80.5986 12.9342 82.3673 11.68 84.2004 11.68C86.0656 11.68 87.8022 12.9342 87.8022 15.6355C87.8022 18.3369 86.0656 19.6233 84.2004 19.6233ZM84.2004 7.1777C79.4408 7.1777 75.7104 10.683 75.7104 15.6355C75.7104 20.588 79.4408 24.1255 84.2004 24.1255C88.9921 24.1255 92.6904 20.588 92.6904 15.6355C92.6904 10.683 88.9921 7.1777 84.2004 7.1777Z" fill="currentColor"></path><path d="M100.372 2.99703H95.9985V5.05521C95.9985 6.53452 95.1945 7.66009 93.5222 7.66009H92.7182V11.9372H95.5482V18.7871C95.5482 21.9709 97.5743 23.9326 100.887 23.9326C102.43 23.9326 103.234 23.5788 103.427 23.4823V19.4303C103.138 19.4946 102.655 19.5911 102.141 19.5911C101.08 19.5911 100.372 19.2373 100.372 17.9188V11.9372H103.492V7.66009H100.372V2.99703Z" fill="currentColor"></path><path d="M56.1584 48.4933V25.2102H51.2703V48.4933H56.1584Z" fill="currentColor"></path><path d="M66.5179 44.4735C64.6849 44.4735 62.9161 43.1549 62.9161 40.4857C62.9161 37.7844 64.6849 36.5302 66.5179 36.5302C68.3831 36.5302 70.1197 37.7844 70.1197 40.4857C70.1197 43.1871 68.3831 44.4735 66.5179 44.4735ZM66.5179 32.0279C61.7584 32.0279 58.0279 35.5333 58.0279 40.4857C58.0279 45.4382 61.7584 48.9757 66.5179 48.9757C71.3096 48.9757 75.0079 45.4382 75.0079 40.4857C75.0079 35.5333 71.3096 32.0279 66.5179 32.0279Z" fill="currentColor"></path><path d="M84.2325 36.5302C86.1299 36.5302 87.0947 37.6879 87.4484 38.91L91.8221 37.5914C91.1146 34.7293 88.5418 32.0279 84.136 32.0279C79.4408 32.0279 75.7104 35.5333 75.7104 40.5179C75.7104 45.4704 79.5373 48.9757 84.2968 48.9757C88.574 48.9757 91.211 46.2101 91.9185 43.4122L87.6092 42.0937C87.2555 43.2836 86.1942 44.4735 84.2968 44.4735C82.2708 44.4735 80.5664 43.0585 80.5664 40.5179C80.5664 37.9452 82.2065 36.5302 84.2325 36.5302Z" fill="currentColor"></path><path d="M109.688 32.5103H103.353L98.4966 37.8809V25.2102H93.6084V48.4933H98.4966V44.5699L100.072 42.8655L103.835 48.4933H109.817L103.449 39.2315L109.688 32.5103Z" fill="currentColor"></path><path d="M113.859 38.5884C113.955 37.3985 114.984 35.887 117.042 35.887C119.358 35.887 120.194 37.3663 120.258 38.5884H113.859ZM120.612 42.7369C120.162 43.9911 119.165 44.8272 117.396 44.8272C115.499 44.8272 113.859 43.5409 113.762 41.74H124.889C124.921 41.6435 124.986 40.9038 124.986 40.2285C124.986 35.083 121.93 32.0279 116.978 32.0279C112.829 32.0279 109.003 35.3081 109.003 40.4536C109.003 45.8241 112.926 48.9757 117.332 48.9757C121.384 48.9757 123.924 46.6603 124.696 43.8946L120.612 42.7369Z" fill="currentColor"></path><path d="M137 32.5103C136.678 32.4138 136.196 32.3495 135.714 32.3495C134.427 32.3495 132.401 32.8641 131.565 34.665V32.5103H126.838V48.4933H131.726V41.5148C131.726 38.3311 133.495 37.1734 135.456 37.1734C135.939 37.1734 136.453 37.2055 137 37.3342V32.5103Z" fill="currentColor"></path></svg>