<?xml version="1.0" encoding="UTF-8"?>
<svg id="Layer_1" data-name="Layer 1" xmlns="http://www.w3.org/2000/svg" viewBox="0 0 832.73 246.27">
  <defs>
    <style>
      .cls-1 {
        fill: #000;
        stroke-width: 0px;
      }
    </style>
  </defs>
  <path class="cls-1" d="M78.71,218.14v1.34c0,5.67.02,11.35-.02,17.02,0,.87.27,1.35,1.03,1.78,4.17,2.36,8.31,4.77,12.46,7.17.33.19.64.4,1.17.74h-29.59c0-.48,0-.91,0-1.34,0-43.24,0-86.48-.03-129.72,0-1.03.43-1.46,1.21-1.91,27.58-15.9,55.15-31.81,82.75-47.69,1.07-.61,1.47-1.26,1.45-2.5-.07-5.47-.03-10.95-.03-16.42,0-.42,0-.85,0-1.45-.52.27-.87.43-1.2.62-33.25,19.18-66.5,38.37-99.76,57.53-.99.57-1.36,1.16-1.36,2.32.03,43,.02,86,.02,129,0,.52,0,1.04,0,1.77-.45-.22-.79-.37-1.11-.55-4.29-2.47-8.57-4.97-12.88-7.41-.73-.41-.96-.89-.96-1.71.02-43.36.02-86.72,0-130.08,0-.81.24-1.28.96-1.7,43.33-24.98,86.64-49.97,129.96-74.97.33-.19.69-.35,1.19-.61v1.55c0,42.36,0,84.72.02,127.08,0,1.05-.3,1.61-1.23,2.14-17.63,10.13-35.24,20.3-52.84,30.46-.37.22-.73.46-1.18.74.35.23.6.41.87.57,5.05,2.92,10.11,5.82,15.14,8.76.64.37,1.09.37,1.73,0,17.84-10.32,35.69-20.62,53.56-30.89.87-.5.95-1.1.95-1.94-.01-43.04,0-86.08,0-129.12v-1.74c.41.19.72.31,1,.47,4.33,2.49,8.64,5.01,12.98,7.47.69.39.91.83.91,1.6-.02,43.4-.02,86.8,0,130.2,0,.91-.36,1.32-1.09,1.74-17.55,10.1-35.09,20.23-52.63,30.35-.47.27-.94.57-1.53.93.4.27.67.48.96.64,4.98,2.88,9.97,5.73,14.94,8.64.71.42,1.23.41,1.95,0,17.81-10.3,35.62-20.59,53.46-30.84.88-.5.95-1.11.95-1.95,0-43.04,0-86.08,0-129.12,0-.52,0-1.03,0-1.78.49.26.86.44,1.21.64,4.19,2.41,8.36,4.86,12.57,7.22.85.48,1.11,1.01,1.11,1.96-.02,36.41-.02,72.81-.02,109.22,0,6.87-.02,13.75.02,20.62,0,.92-.28,1.4-1.08,1.86-17.66,10.16-35.3,20.35-52.94,30.53-.38.22-.75.45-1.32.79,16.16,9.32,32.18,18.57,48.2,27.82-.02.08-.03.17-.05.25h-1.25c-8.8,0-17.59-.02-26.39.02-1.17,0-2.15-.28-3.15-.86-36.53-21.1-73.06-42.18-109.6-63.26-.41-.24-.82-.47-1.43-.81-.04.58-.09.98-.09,1.39,0,5.59.03,11.19-.03,16.78-.01,1.02.32,1.55,1.19,2.05,25.3,14.57,50.59,29.17,75.88,43.76.4.23.79.48,1.14.91h-1.01c-9.08,0-18.15.01-27.23-.03-.71,0-1.5-.23-2.12-.58-15.51-8.92-31.01-17.87-46.51-26.81-.37-.21-.75-.4-1.31-.7ZM149.11,82.01c-.58.3-.96.48-1.33.69-22.72,13.12-45.44,26.24-68.17,39.35-.68.39-.92.82-.92,1.6.02,13.1.02,26.21,0,39.31,0,.82.25,1.28.97,1.69,4.38,2.48,8.74,4.99,13.07,7.55.74.44,1.25.36,1.94-.04,17.77-10.28,35.54-20.54,53.34-30.77.85-.49,1.12-1.01,1.12-1.97-.03-18.66-.02-37.32-.02-55.97v-1.45Z"/>
  <path class="cls-1" d="M148.93,8.37c-1.12.65-2.05,1.19-2.97,1.72C102.68,35.07,59.41,60.05,16.11,84.99c-.94.54-1.2,1.12-1.2,2.15.02,43.04.01,86.07.01,129.11,0,.52,0,1.03,0,1.76-.47-.24-.81-.4-1.13-.59-4.26-2.45-8.5-4.93-12.78-7.35-.77-.44-1.01-.93-1.01-1.79C.03,164.97.03,121.66,0,78.34c0-1,.38-1.46,1.19-1.93C45.13,51.07,89.07,25.72,132.99.35c.74-.43,1.27-.49,2.04-.04,4.54,2.68,9.11,5.29,13.9,8.06Z"/>
  <path class="cls-1" d="M791.64,101.49c11.03.15,20.03,2.76,27.66,9.1,9.28,7.7,13.48,17.81,13.43,29.73-.09,19.91-13.71,35.26-33.53,37.85-11.52,1.51-22.24-.59-31.66-7.64-8.92-6.69-13.57-15.81-14.52-26.86-.68-7.91.6-15.48,4.48-22.45,6.05-10.86,15.55-16.86,27.61-19.03,2.55-.46,5.16-.56,6.53-.7ZM771.2,140.02c-.03,14.77,12.43,24.79,26.84,21.58,8.85-1.97,15.08-9.23,16.25-18.95,1.92-15.9-12.08-28.04-27.52-23.89-9.33,2.51-15.55,11.01-15.57,21.26Z"/>
  <path class="cls-1" d="M362.46,146.46c.28,1.34.45,2.51.77,3.64,2.35,8.29,9.44,13.67,18.31,13.9,7.47.2,13.73-2.47,18.8-7.95.57-.61,1.12-1.24,1.78-1.97,4.34,3.28,8.67,6.54,13.09,9.89-.39.46-.73.89-1.1,1.3-8.96,10.18-20.34,14.21-33.68,13.2-8.34-.63-15.92-3.35-22.46-8.63-8.2-6.63-12.58-15.32-13.57-25.76-.81-8.59.67-16.75,5.19-24.16,6.16-10.11,15.41-15.73,26.93-17.74,6.92-1.21,13.8-.96,20.44,1.52,9.89,3.7,15.91,11.02,19.16,20.84,1.53,4.62,2.26,9.38,2.4,14.24.07,2.51.01,5.02.01,7.68h-56.07ZM400.31,132.7c-.08-.99-.12-1.82-.23-2.64-.93-6.51-4.29-11.14-10.53-13.5-2.88-1.09-5.89-1.37-8.95-1.28-8.32.25-14.51,4.88-17.03,12.81-.46,1.46-.75,2.98-1.15,4.61h37.89Z"/>
  <path class="cls-1" d="M562.42,103.42v73.29h-17.33v-11.54c-.09-.02-.17-.04-.26-.07-.15.2-.32.38-.43.6-4.15,8.22-11.02,12.27-20.04,12.86-5.25.34-10.39-.28-15.19-2.6-7-3.38-10.9-9.21-12.57-16.57-.71-3.13-1.11-6.4-1.13-9.6-.12-15.1-.05-30.21-.05-45.31,0-.31.03-.63.05-1.03h18.31c0,.5,0,.97,0,1.43,0,12.27,0,24.53,0,36.8,0,3.61.24,7.18,1.22,10.68,2.06,7.37,7.34,10.78,14.94,9.65,7.83-1.16,12.77-6.17,13.86-14.14.24-1.73.33-3.5.34-5.25.03-12.55.01-25.09.01-37.64,0-.51,0-1.02,0-1.57h18.28Z"/>
  <path class="cls-1" d="M650.42,176.72h-18.32c0-.49,0-.95,0-1.41,0-12.31,0-24.61,0-36.92,0-3.85-.27-7.67-1.46-11.36-1.47-4.57-4.22-7.97-9.19-8.76-8.33-1.31-17.39,2.01-19.34,13.88-.3,1.8-.39,3.66-.4,5.49-.03,12.47-.02,24.93-.02,37.4,0,.51,0,1.03,0,1.65h-18.21v-73.24h17.27v11.54c.08.03.17.05.25.08.15-.18.34-.35.45-.55,4.99-9.76,13.36-13.32,23.85-12.95,4.15.15,8.17.95,11.9,2.87,6.74,3.47,10.5,9.22,12.09,16.4.72,3.25,1.07,6.64,1.09,9.97.11,14.86.05,29.73.05,44.59v1.33Z"/>
  <path class="cls-1" d="M309.35,176.73h-18.23v-73.28h18.18v11.4c.1.04.21.08.31.11.21-.33.43-.66.62-1.01,5.1-9.5,15.85-14.29,26.33-11.78,1.07.26,1.47.66,1.45,1.83-.08,4.91-.03,9.83-.03,14.74v1.48c-1.22-.25-2.3-.48-3.37-.7-3.97-.83-7.95-.9-11.88.19-7.67,2.13-11.69,7.5-13.11,15.07-.21,1.13-.25,2.3-.26,3.46-.02,12.31-.01,24.61-.01,36.92v1.57Z"/>
  <path class="cls-1" d="M454.15,103.46v11.38c.1.04.19.07.29.11.19-.3.39-.59.56-.91,5.15-9.57,15.73-14.33,26.27-11.89,1.27.29,1.61.79,1.59,2.06-.08,4.87-.03,9.75-.03,14.62,0,.43,0,.87,0,1.33-2.3-.39-4.49-.92-6.7-1.1-6.25-.51-12.07.6-16.64,5.31-3.68,3.8-5.31,8.5-5.33,13.72-.05,12.34-.01,24.69-.01,37.03,0,.51,0,1.01,0,1.59h-18.2v-73.25h18.22Z"/>
  <path class="cls-1" d="M735.19,176.72h-18.09v-73.29h18.09v73.29Z"/>
  <path class="cls-1" d="M683.52,177.7c-6.69-.01-12.19-5.26-12.18-11.61.02-6.6,5.53-11.91,12.33-11.88,6.7.03,12.14,5.27,12.1,11.68-.04,6.57-5.49,11.83-12.25,11.81Z"/>
  <path class="cls-1" d="M725.69,67.36c3.89.09,7,1.2,9.46,3.84,3.92,4.22,3.67,10.89-.53,14.89-4.16,3.97-11.22,4.43-15.77.92-3.65-2.81-5.22-6.57-4.12-11.08,1.1-4.52,4.2-7.2,8.7-8.27.85-.2,1.73-.23,2.27-.3Z"/>
</svg>