<?xml version="1.0" encoding="UTF-8"?>
<svg id="Lager_1" data-name="Lager 1" xmlns="http://www.w3.org/2000/svg" viewBox="0 0 990.57 405.4">
  <defs>
    <style>
      .cls-1 {
        fill: #80a8d2;
        stroke-width: 0px;
      }
    </style>
  </defs>
  <path class="cls-1" d="M.17,300.14l.03-16.48c8.53-1.97,17.19-5.29,25.55-8.5,12.25-4.7,24.91-9.56,38.01-10.64,9.94-.82,19.6.83,28.94,2.42,11.56,1.97,22.48,3.83,33.32,1.24,9.07-2.16,18.05-6.72,27.56-11.55,9.9-5.02,20.13-10.22,30.82-12.71,10.68-2.49,21.01-2.04,31.01-1.6,9.52.42,18.51.81,27.3-1.24,9.99-2.33,19.19-8.05,28.93-14.1,7.21-4.48,14.67-9.12,22.86-12.64,9.47-4.07,18.36-4.86,26.95-5.62,7.11-.63,13.83-1.23,20.5-3.63,7.27-2.62,14.44-6.03,21.37-9.34,12.88-6.14,26.2-12.49,40.93-14.22,12.6-1.48,24.67.2,36.35,1.83,11.7,1.63,22.75,3.17,33.91,1.67,11.28-1.51,21.71-6.97,32.74-12.75,6.8-3.56,13.83-7.25,21.35-10.15,7.42-2.87,14.02-2.7,19.85-2.54,5.4.14,10.06.26,14.83-1.8,6.48-2.79,12.53-6.25,18.38-9.59,10.86-6.2,22.1-12.61,36.33-15.19,14.73-2.67,28.7-1,42.21.61,11.57,1.38,22.49,2.68,33.54,1.38,12.82-1.5,24.98-6.72,37.86-12.24,8.54-3.66,17.38-7.45,26.77-10.29,9-2.72,17.73-4.04,26.17-5.31,10.68-1.61,20.76-3.12,30.7-7.3,7.26-3.05,14.35-7.76,21.85-12.75,11.61-7.71,23.61-15.68,37.56-18.36,10.62-2.04,20.53-1.68,30.11-1.34,9.67.35,18.8.68,27.92-1.45,9.12-2.13,18.24-6.72,27.89-11.58,9.56-4.81,19.45-9.79,30.07-12.72l.63,16.33c-.09.03-.18.06-.27.08l.29,7.49c-9.09,2.51-17.8,6.89-27.03,11.54-10.11,5.09-20.55,10.35-31.52,12.91-10.96,2.56-21.43,2.18-31.55,1.81-9.25-.34-17.98-.65-27.05,1.09-10.78,2.07-20.81,8.74-31.44,15.8-7.89,5.24-16.05,10.66-24.84,14.36-11.77,4.95-23.27,6.68-34.4,8.36-8.29,1.25-16.11,2.42-24.06,4.83-8.53,2.58-16.93,6.18-25.06,9.67-13.35,5.73-27.16,11.65-42.12,13.4-12.61,1.48-24.8.03-36.6-1.38-13.15-1.57-25.57-3.05-38.28-.74-11.58,2.1-21.08,7.52-31.14,13.26-6.28,3.58-12.77,7.29-20.14,10.47-7.89,3.4-14.87,3.22-21.04,3.06-5.18-.14-9.65-.25-14.24,1.52-6.61,2.56-12.9,5.85-19.56,9.34-11.82,6.2-24.05,12.6-38.01,14.47-12.96,1.73-25.4,0-37.43-1.67-11.39-1.59-22.15-3.08-33.06-1.8-12.27,1.44-23.82,6.95-36.05,12.77-7.31,3.49-14.87,7.09-22.92,9.98-8.53,3.07-16.51,3.78-24.22,4.47-7.79.69-15.14,1.35-22.29,4.42-6.97,3-13.53,7.07-20.48,11.39-10.52,6.54-21.4,13.3-33.99,16.24-10.69,2.5-21.03,2.04-31.03,1.6-9.51-.42-18.49-.81-27.28,1.24-8.82,2.06-17.72,6.58-27.14,11.36-9.96,5.06-20.26,10.29-31.17,12.89-13.59,3.24-26.33,1.07-38.65-1.02-8.98-1.53-17.46-2.97-25.77-2.29-11.03.91-22.13,5.16-33.87,9.67-8.88,3.41-18.14,6.95-27.73,9.16"/>
  <path class="cls-1" d="M.18,350.85l-.02-16.37c8.54-1.92,17.4-5.22,25.76-8.38,12.24-4.63,24.9-9.42,38.02-10.43,9.95-.77,19.63.91,29,2.54,11.58,2.01,22.53,3.91,33.38,1.38,9.08-2.12,18.05-6.62,27.55-11.39,9.89-4.96,20.12-10.1,30.81-12.54,10.68-2.44,21.03-1.94,31.04-1.46,9.53.46,18.54.89,27.34-1.12,9.99-2.28,19.18-7.94,28.91-13.93,7.2-4.44,14.65-9.02,22.84-12.5,9.46-4.01,18.36-4.76,26.97-5.49,7.12-.6,13.84-1.16,20.51-3.53,7.26-2.57,14.43-5.95,21.36-9.21,12.87-6.06,26.18-12.33,40.93-13.99,12.61-1.42,24.71.31,36.41,1.98,11.72,1.68,22.8,3.26,33.96,1.82,11.29-1.45,21.71-6.85,32.73-12.57,6.79-3.52,13.82-7.16,21.33-10.03,7.42-2.83,14.03-2.63,19.86-2.45,5.41.16,10.07.31,14.85-1.73,6.47-2.76,12.52-6.17,18.36-9.48,10.85-6.13,22.07-12.47,36.31-14.98,14.74-2.59,28.74-.87,42.28.79,11.59,1.43,22.54,2.77,33.6,1.53,12.83-1.44,24.99-6.59,37.86-12.03,8.54-3.61,17.37-7.35,26.76-10.14,9-2.68,17.74-3.95,26.18-5.17,10.69-1.55,20.78-3.02,30.71-7.14,7.26-3.01,14.34-7.67,21.83-12.61,11.59-7.63,23.58-15.53,37.53-18.14,10.63-1.99,20.55-1.59,30.15-1.2,9.68.39,18.82.76,27.95-1.32,9.12-2.08,18.23-6.62,27.88-11.42,9.55-4.75,19.43-9.67,30.06-12.55l.71,16.28c-.09.02-.18.06-.27.08l.32,7.47c-9.09,2.46-17.8,6.79-27.02,11.38-10.1,5.03-20.54,10.22-31.5,12.73-10.97,2.5-21.45,2.08-31.59,1.67-9.26-.38-18.01-.73-27.08.97-10.78,2.02-20.81,8.62-31.42,15.61-7.88,5.19-16.02,10.55-24.82,14.2-11.77,4.88-23.28,6.56-34.41,8.18-8.29,1.21-16.12,2.35-24.07,4.71-8.53,2.53-16.93,6.09-25.05,9.53-13.35,5.65-27.15,11.49-42.13,13.17-12.62,1.42-24.84-.08-36.66-1.54-13.17-1.62-25.62-3.15-38.34-.91-11.58,2.04-21.08,7.4-31.13,13.08-6.27,3.54-12.76,7.21-20.12,10.35-7.89,3.36-14.88,3.15-21.05,2.96-5.18-.16-9.66-.29-14.25,1.46-6.61,2.52-12.89,5.78-19.55,9.22-11.81,6.12-24.03,12.46-38,14.26-12.97,1.67-25.43-.11-37.49-1.83-11.41-1.63-22.19-3.17-33.11-1.94-12.28,1.38-23.82,6.82-36.04,12.57-7.31,3.44-14.86,7-22.91,9.85-8.53,3.02-16.52,3.69-24.24,4.34-7.8.66-15.16,1.27-22.3,4.3-6.97,2.96-13.52,6.99-20.45,11.26-10.51,6.47-21.37,13.16-33.97,16.04-10.69,2.44-21.05,1.94-31.07,1.46-9.53-.46-18.52-.89-27.31,1.11-8.82,2.01-17.71,6.48-27.13,11.2-9.95,5-20.25,10.16-31.16,12.71-13.6,3.17-26.36.95-38.71-1.19-9-1.56-17.5-3.04-25.82-2.39-11.04.86-22.13,5.05-33.88,9.49-8.88,3.36-18.37,6.91-27.97,9.07"/>
</svg>