<?xml version="1.0" encoding="UTF-8"?>
<svg id="Layer_1" data-name="Layer 1" xmlns="http://www.w3.org/2000/svg" viewBox="0 0 39.91 47.88">
  <defs>
    <style>
      .cls-1 {
        fill: #4b4b4b;
        stroke-width: 0px;
      }
    </style>
  </defs>
  <path class="cls-1" d="M35.53,0H13.43c-2.41,0-4.38,1.96-4.38,4.38v4.55h-4.68c-2.41,0-4.38,1.96-4.38,4.38v30.21c0,2.41,1.96,4.38,4.38,4.38h22.1c2.41,0,4.38-1.96,4.38-4.38v-4.55h4.68c2.41,0,4.38-1.96,4.38-4.38V4.38c0-2.41-1.96-4.38-4.38-4.38ZM27.85,43.51c0,.76-.62,1.38-1.38,1.38H4.38c-.76,0-1.38-.62-1.38-1.38V13.3c0-.76.62-1.38,1.38-1.38h22.1c.76,0,1.38.62,1.38,1.38v30.21ZM36.91,34.58c0,.76-.62,1.38-1.38,1.38h-4.68V13.3c0-2.41-1.96-4.38-4.38-4.38h-14.43v-4.55c0-.76.62-1.38,1.38-1.38h22.1c.76,0,1.38.62,1.38,1.38v30.21Z"/>
</svg>