<?xml version="1.0" encoding="UTF-8"?>
<svg id="Lager_1" data-name="Lager 1" xmlns="http://www.w3.org/2000/svg" xmlns:xlink="http://www.w3.org/1999/xlink" viewBox="0 0 141.21 201.51">
  <defs>
    <style>
      .cls-1 {
        fill: #122231;
      }

      .cls-1, .cls-2 {
        stroke-width: 0px;
      }

      .cls-2 {
        fill: url(#Namnlös_övertoning_4);
      }
    </style>
    <linearGradient id="Namnlös_övertoning_4" data-name="Namnlös övertoning 4" x1="72.91" y1="103.57" x2="72.91" y2="7.36" gradientUnits="userSpaceOnUse">
      <stop offset="0" stop-color="#f7a6ee"/>
      <stop offset="1" stop-color="#986aad"/>
    </linearGradient>
  </defs>
  <path class="cls-1" d="M43.57,90.79c.74.03,1.28.07,1.82.11.94.07,1.58-.58,2.13-1.25,1-1.23,1.54-2.68,1.8-4.22.75-4.46,2.34-8.62,4.41-12.6,1.08-2.07,2.12-4.16,2.39-6.52.21-1.84.41-3.68.67-5.51.23-1.62.43-3.25.98-4.81.26-.72.72-1.15,1.44-1.34,1.14-.29,2.22-.33,3.3.31.91.54,1.87,1.02,2.95,1.25.68.14,1.25.06,1.83-.3,1.36-.84,2.59-1.86,3.84-2.85,1.02-.81,2.22-1.1,3.45-1.16.74-.04,1.44.34,1.79,1.07.39.81.73,1.65,1.09,2.49.6,1.43,1.38,2.74,2.71,3.59,1.69,1.07,2.6,2.66,3.23,4.48.29.83.59,1.66,1.11,2.39.74,1.05,1.99,1.46,3.2,1.11.8-.23,1.61-.42,2.43-.53.95-.13,2,.82,1.96,1.78-.08,1.88.34,3.58,1.54,5.06.59.72,1.32,1.26,2.12,1.68,1.99,1.03,3.09,2.64,3.55,4.81.49,2.33,1.48,4.46,3.02,6.31,1.48,1.79,2.26,3.86,2.56,6.17.24,1.85.91,3.59,1.92,5.18,1.39,2.22,2.76,4.45,4.13,6.68.53.87,1.28,1.2,2.3,1.27,1.42.09,2.67.64,3.22,2.13.29.78.55,1.57.88,2.34.59,1.39,1.67,2.41,2.68,3.49,1.44,1.54,3.24,2.56,4.96,3.72.3.2.59.4.86.63,1.7,1.46,1.7,3.07.78,5.25-.03.07-.09.12-.11.18-.68,2.01-1.8,1.91-3.38,1.29-1.96-.76-3.91-1.51-5.99-1.85-.68-.11-1.37-.22-2.05-.21-2.41.06-4.82-.09-7.22-.18-2.47-.1-4.94-.31-7.4-.5-2.59-.21-5.18-.03-7.73.57-3.49.83-7.02,1.27-10.61,1.09-2.99-.15-5.96-.54-8.92-1.05-1.61-.28-3.23-.57-4.87-.66-2.79-.15-5.41.64-8.04,1.38-1.28.36-2.55.72-3.88.94-2.37.39-4.35-.41-6.17-1.81-.95-.73-1.85-1.5-2.66-2.38-.34-.37-.75-.57-1.22-.7-2.51-.7-4.91-.64-7.23.74-1.22.72-2.53,1.31-3.84,1.9-2.68,1.19-5.31,1.04-7.94-.13-.92-.41-1.85-.76-2.83-.98-.53-.12-1.04-.31-1.5-.64-.47-.35-1.02-.5-1.61-.47-.75.03-1.5-.27-2.26-.02-.18.06-.4,0-.49-.21-.12-.26.13-.34.28-.42.81-.41,1.35-1.21,2.21-1.55.23-.09.43-.3.55-.55.14-.29.35-.54.61-.68,1.89-1.05,3.12-2.78,4.5-4.33,3.73-4.21,6.13-9.21,8.52-14.23.63-1.33,1.41-2.59,2.17-3.85,1.01-1.68,2.52-2.46,4.37-2.74.64-.1,1.27-.21,1.73-.16Z"/>
  <path class="cls-2" d="M129.91,58.69c-3.31-31.48-31.51-54.32-62.99-51.01-31.48,3.31-54.32,31.51-51.01,62.99,1.23,11.74,5.93,22.28,12.98,30.71.94-1.82,1.84-3.68,2.72-5.54.7-1.47,1.55-2.84,2.38-4.23,1.11-1.85,2.77-2.7,4.8-3.01.7-.11,1.39-.23,1.9-.17.81.03,1.41.07,2,.12,1.04.08,1.73-.64,2.33-1.37,1.1-1.35,1.69-2.95,1.97-4.64.82-4.9,2.57-9.46,4.85-13.84,1.19-2.28,2.32-4.56,2.62-7.16.23-2.02.45-4.04.73-6.05.25-1.78.48-3.56,1.08-5.28.28-.79.79-1.26,1.58-1.47,1.25-.32,2.43-.36,3.62.34,1,.59,2.06,1.12,3.24,1.37.75.16,1.37.06,2.01-.33,1.5-.92,2.85-2.04,4.22-3.13,1.12-.89,2.44-1.21,3.79-1.28.81-.04,1.58.38,1.97,1.18.43.89.81,1.81,1.19,2.73.66,1.57,1.51,3.01,2.98,3.94,1.85,1.18,2.85,2.92,3.54,4.92.31.91.65,1.82,1.21,2.62.81,1.15,2.18,1.6,3.52,1.22.87-.25,1.77-.46,2.67-.58,1.05-.15,2.19.9,2.15,1.96-.09,2.06.37,3.93,1.7,5.56.64.79,1.45,1.39,2.32,1.84,2.18,1.13,3.4,2.89,3.9,5.28.54,2.56,1.62,4.89,3.31,6.93,1.63,1.96,2.49,4.24,2.81,6.78.26,2.03,1,3.94,2.11,5.69,1.53,2.43,3.03,4.89,4.53,7.34.11.17.22.32.34.45,10.8-11.7,16.7-27.81,14.91-44.88ZM88.53,43.56c-2.87,0-5.2-2.33-5.2-5.2s2.33-5.2,5.2-5.2,5.2,2.33,5.2,5.2-2.33,5.2-5.2,5.2Z"/>
  <g>
    <path class="cls-1" d="M38.79,152.86c0,4.18-2.97,6.5-9.38,6.5-2.42,0-5.91-.15-7.96-.15s-2.91.09-3.75.09c-.96,0-1.36-.53-1.36-1.08,0-1.39,1.8-.84,1.8-3.06v-14.06c0-2.23-1.8-1.67-1.8-3.06,0-.56.4-1.08,1.36-1.08.84,0,1.61.09,3.75.09s4.27-.25,6.9-.25c5.33,0,8.82,2.17,8.82,5.97,0,1.7-.8,3.41-3,4.49,2.85.93,4.61,2.91,4.61,5.6ZM24.77,145.28c0,.62.22.87,1.15.87h1.02c1.64,0,3.19-.84,3.19-2.97s-1.46-3.38-3.38-3.38h-.19c-.96,0-1.8.25-1.8,1.39v4.09ZM31.55,152.89c0-2.57-1.79-3.96-4.71-3.96h-1.02c-.77,0-1.05.31-1.05,1.12v4.21c0,1.95.62,2.17,2.57,2.17h.31c2.29,0,3.9-1.42,3.9-3.53Z"/>
    <path class="cls-1" d="M56.54,145.77c0,1.11-.59,2.54-1.39,4.27-.31.68-.74,1.08-1.33,1.08-.56,0-.96-.46-1.24-.96-.68-1.21-1.3-1.98-2.26-1.98-1.02,0-2.45,1.08-2.45,4.37v2.79c0,2.14,2.11,1.49,2.11,2.94,0,.5-.37,1.02-1.3,1.02-.87,0-1.7-.09-3.81-.09-1.89,0-2.63.09-3.41.09-.93,0-1.3-.5-1.3-1.02,0-1.33,1.7-.81,1.7-2.94v-5.76c0-2.01-1.92-1.27-1.92-2.79,0-.8.96-1.27,3.56-2.38,2.38-1.02,2.82-1.12,3.19-1.12.93,0,1.18.74,1.18,1.76v2.17c.8-2.2,2.97-4.06,5.33-4.06,2.01,0,3.34,1.21,3.34,2.6Z"/>
    <path class="cls-1" d="M76.82,156.55c0,1.05-1.61,2.91-4.8,2.91-1.46,0-2.79-.68-3.62-1.95-1.12.93-3.13,2.07-5.82,2.07-3.56,0-5.7-2.01-5.7-4.89s2.32-5.14,6.66-5.14c1.46,0,2.6.19,3.38.4l-.03-.31c-.28-2.01-1.49-3.03-3.03-3.03-1.36,0-2.38.4-3.25.77-.56.25-1.08.53-1.49.53-.43,0-.93-.37-.93-1.02,0-.77.77-1.55,1.33-1.98,1.39-1.08,3.44-1.83,6.25-1.83,3.78,0,6.47,1.46,6.97,5.14l.68,4.98c.25,1.83.96,2.26,2.76,2.6.34.06.65.31.65.74ZM67.68,155.49l-.46-3.31c-.37-.09-.9-.15-1.55-.15-1.49,0-2.66.56-2.66,1.98s1.02,2.26,2.29,2.26c.93,0,1.86-.4,2.38-.77Z"/>
    <path class="cls-1" d="M98.15,158.31c0,.56-.5.96-1.33.96-.77,0-1.46-.09-3.34-.09s-2.63.09-3.41.09c-.99,0-1.39-.5-1.39-1.02,0-1.18,1.58-.96,1.58-2.45,0-.4-.06-.96-.19-1.79l-.43-3.1c-.34-2.51-1.18-3.34-2.42-3.34-.99,0-2.2.74-2.2,3.78v3.99c0,2.14,1.73,1.61,1.73,2.94,0,.5-.37,1.02-1.3,1.02-.77,0-1.55-.09-3.44-.09s-2.63.09-3.41.09c-.93,0-1.3-.5-1.3-1.02,0-1.33,1.7-.81,1.7-2.94v-5.76c0-2.01-1.92-1.27-1.92-2.79,0-.8.96-1.27,3.56-2.38,2.38-1.02,2.82-1.12,3.19-1.12.93,0,1.18.74,1.18,1.76v1.21h.03c.93-1.64,2.82-3.1,5.26-3.1,2.82,0,4.67,2.07,5.17,6.01l.74,5.76c.34,2.66,1.92,1.98,1.92,3.37Z"/>
    <path class="cls-1" d="M111.78,155.96c0,.59-.43,1.27-.87,1.7-1.08,1.08-2.63,1.98-5.2,1.98-2.79,0-5.05-1.67-5.05-3.68,0-.65.12-3.03.12-5.17v-4.46h-1.33c-.77,0-1.33-.46-1.33-1.15,0-.74.46-1.11,1.24-1.58,2.07-1.24,3.19-2.14,4.43-3.78,1.02-1.36,1.39-1.98,2.07-1.98.59,0,.93.37.93,1.33v4.37h3.71c.59,0,.93.28.93.96,0,.25-.06.68-.09.9-.09.62-.37.93-.99.93h-3.56v6.81c0,2.45.74,3,1.64,3,.37,0,.74-.09,1.46-.68.22-.19.53-.46.96-.46.62,0,.93.46.93.96Z"/>
    <path class="cls-1" d="M132.65,156.55c0,1.05-1.61,2.91-4.8,2.91-1.46,0-2.79-.68-3.62-1.95-1.12.93-3.13,2.07-5.82,2.07-3.56,0-5.7-2.01-5.7-4.89s2.32-5.14,6.66-5.14c1.46,0,2.6.19,3.38.4l-.03-.31c-.28-2.01-1.49-3.03-3.03-3.03-1.36,0-2.38.4-3.25.77-.56.25-1.08.53-1.49.53-.43,0-.93-.37-.93-1.02,0-.77.77-1.55,1.33-1.98,1.39-1.08,3.44-1.83,6.25-1.83,3.78,0,6.47,1.46,6.97,5.14l.68,4.98c.25,1.83.96,2.26,2.76,2.6.34.06.65.31.65.74ZM123.51,155.49l-.46-3.31c-.37-.09-.9-.15-1.55-.15-1.49,0-2.66.56-2.66,1.98s1.02,2.26,2.29,2.26c.93,0,1.86-.4,2.38-.77Z"/>
    <path class="cls-1" d="M40.57,182.54c0,4.18-2.97,6.5-9.38,6.5-2.42,0-5.91-.15-7.96-.15s-2.91.09-3.75.09c-.96,0-1.36-.53-1.36-1.08,0-1.39,1.8-.84,1.8-3.06v-14.06c0-2.23-1.8-1.67-1.8-3.06,0-.56.4-1.08,1.36-1.08.84,0,1.61.09,3.75.09s4.27-.25,6.9-.25c5.33,0,8.82,2.17,8.82,5.97,0,1.7-.8,3.41-3,4.49,2.85.93,4.61,2.91,4.61,5.6ZM26.55,174.95c0,.62.22.87,1.15.87h1.02c1.64,0,3.19-.84,3.19-2.97s-1.46-3.38-3.38-3.38h-.19c-.96,0-1.8.25-1.8,1.39v4.09ZM33.33,182.57c0-2.57-1.79-3.96-4.71-3.96h-1.02c-.77,0-1.05.31-1.05,1.12v4.21c0,1.95.62,2.17,2.57,2.17h.31c2.29,0,3.9-1.42,3.9-3.53Z"/>
    <path class="cls-1" d="M59.43,184.8c0,.28-.09.53-.28.87-.93,1.58-3.9,3.9-8.42,3.9-5.2,0-8.76-3.47-8.76-8.33,0-5.39,4.33-8.7,9.2-8.7s7.68,3.37,7.68,6.38c0,1.08-.34,1.21-.99,1.42l-8.7,2.79c.99,1.52,2.54,2.66,4.55,2.66,1.33,0,2.42-.43,3.65-1.27.68-.46.9-.62,1.24-.62.59,0,.84.62.84.9ZM47.98,179.07c0,.53.06,1.05.19,1.58l3.93-1.36c.5-.16.8-.43.8-1.02,0-1.36-1.11-2.94-2.54-2.94s-2.38,1.36-2.38,3.75Z"/>
    <path class="cls-1" d="M77.3,175.45c0,1.11-.59,2.54-1.39,4.27-.31.68-.74,1.08-1.33,1.08-.56,0-.96-.46-1.24-.96-.68-1.21-1.3-1.98-2.26-1.98-1.02,0-2.45,1.08-2.45,4.37v2.79c0,2.14,2.11,1.49,2.11,2.94,0,.5-.37,1.02-1.3,1.02-.87,0-1.7-.09-3.81-.09-1.89,0-2.63.09-3.41.09-.93,0-1.3-.5-1.3-1.02,0-1.33,1.7-.81,1.7-2.94v-5.76c0-2.01-1.92-1.27-1.92-2.79,0-.8.96-1.27,3.56-2.38,2.38-1.02,2.82-1.12,3.19-1.12.93,0,1.18.74,1.18,1.76v2.17c.81-2.2,2.97-4.06,5.33-4.06,2.01,0,3.34,1.21,3.34,2.6Z"/>
    <path class="cls-1" d="M97.58,189.22c0,3.41-3.72,5.73-10,5.73s-9.85-1.61-9.85-3.81c0-1.15.84-2.01,2.38-2.6-.99-.56-1.67-1.46-1.67-2.76s.96-2.85,2.48-3.81c-1.8-.87-2.76-2.17-2.76-3.81,0-2.94,3.16-5.63,9.32-5.63.37,0,.74,0,1.08.03.25-3.13,2.48-5.45,4.03-5.45.8,0,1.7.43,3.13,1.67.53.46.9.99.9,1.49,0,.59-.34,1.08-1.11,1.11-2.32.06-4.3.28-4.71,1.49,3.22.71,4.89,2.48,4.89,4.61,0,2.88-3,5.48-9.26,5.48-1.18,0-2.23-.09-3.16-.28-.25.31-.4.59-.4.71,0,.5.68.71,2.2.81,2.88.15,4.86.28,7.28.43,2.72.19,5.23,1.55,5.23,4.58ZM91.95,191.36c0-.56-.5-.96-1.7-1.11-2.11-.28-4.83-.56-7.49-.87h-.03c-.4.43-.59.99-.59,1.36,0,1.49,2.38,1.95,5.45,1.95,3.22,0,4.37-.62,4.37-1.33ZM83.96,177.58c0,2.07,1.55,3.13,3.07,3.13,1.7,0,2.85-1.18,2.85-2.75,0-2.08-1.55-3.13-3.07-3.13-1.7,0-2.85,1.18-2.85,2.75Z"/>
    <path class="cls-1" d="M115.11,184.8c0,.28-.09.53-.28.87-.93,1.58-3.9,3.9-8.42,3.9-5.2,0-8.76-3.47-8.76-8.33,0-5.39,4.33-8.7,9.2-8.7s7.68,3.37,7.68,6.38c0,1.08-.34,1.21-.99,1.42l-8.7,2.79c.99,1.52,2.54,2.66,4.55,2.66,1.33,0,2.42-.43,3.65-1.27.68-.46.9-.62,1.24-.62.59,0,.84.62.84.9ZM103.65,179.07c0,.53.06,1.05.19,1.58l3.93-1.36c.5-.16.81-.43.81-1.02,0-1.36-1.12-2.94-2.54-2.94s-2.38,1.36-2.38,3.75Z"/>
    <path class="cls-1" d="M129.23,185.63c0,.59-.43,1.27-.87,1.7-1.08,1.08-2.63,1.98-5.2,1.98-2.79,0-5.05-1.67-5.05-3.68,0-.65.12-3.03.12-5.17v-4.46h-1.33c-.77,0-1.33-.46-1.33-1.15,0-.74.46-1.11,1.24-1.58,2.07-1.24,3.19-2.14,4.43-3.78,1.02-1.36,1.39-1.98,2.07-1.98.59,0,.93.37.93,1.33v4.37h3.71c.59,0,.93.28.93.96,0,.25-.06.68-.09.9-.09.62-.37.93-.99.93h-3.56v6.81c0,2.45.74,3,1.64,3,.37,0,.74-.09,1.46-.68.22-.19.53-.46.96-.46.62,0,.93.46.93.96Z"/>
  </g>
</svg>