<?xml version="1.0" encoding="UTF-8"?>
<svg id="logo_light_notitle" data-name="logo_light_notitle" xmlns="http://www.w3.org/2000/svg" viewBox="0 0 117.94 120.65">
  <defs>
    <style>
      .cls-1 {
        fill: #fcf9e5;
        stroke-width: 0px;
      }
    </style>
  </defs>
    <path id="logo_light_icon-mountain" class="cls-1" d="M31.49,87.01c.73.03,1.26.06,1.8.11.93.07,1.56-.57,2.1-1.24.99-1.21,1.52-2.65,1.78-4.17.74-4.4,2.31-8.51,4.36-12.44,1.07-2.05,2.09-4.1,2.36-6.44.21-1.81.4-3.63.66-5.44.23-1.6.43-3.2.97-4.74.25-.71.71-1.14,1.42-1.32,1.12-.29,2.19-.33,3.26.31.9.53,1.85,1.01,2.91,1.23.68.14,1.23.06,1.81-.3,1.35-.83,2.56-1.83,3.79-2.81,1.01-.8,2.19-1.09,3.41-1.15.73-.04,1.42.34,1.77,1.06.39.8.73,1.63,1.07,2.45.59,1.41,1.36,2.71,2.68,3.54,1.66,1.06,2.57,2.62,3.18,4.42.28.82.58,1.64,1.09,2.36.73,1.03,1.96,1.44,3.16,1.09.79-.23,1.59-.41,2.4-.52.94-.13,1.97.81,1.93,1.76-.08,1.85.34,3.53,1.52,5,.58.71,1.3,1.25,2.09,1.65,1.96,1.02,3.05,2.6,3.51,4.75.49,2.3,1.46,4.4,2.98,6.23,1.46,1.77,2.23,3.81,2.53,6.09.24,1.83.9,3.54,1.89,5.12,1.38,2.19,2.72,4.39,4.07,6.6.53.86,1.26,1.19,2.27,1.25,1.41.09,2.63.63,3.18,2.1.29.77.55,1.55.86,2.31.58,1.38,1.65,2.38,2.64,3.45,1.42,1.52,3.2,2.53,4.89,3.67.29.2.59.39.85.62,1.67,1.44,1.68,3.04.77,5.18-.03.06-.09.12-.11.18-.67,1.99-1.77,1.88-3.34,1.28-1.93-.75-3.86-1.49-5.91-1.83-.67-.11-1.35-.22-2.03-.2-2.38.06-4.76-.09-7.13-.18-2.44-.1-4.87-.3-7.31-.5-2.56-.2-5.12-.03-7.63.57-3.44.82-6.93,1.26-10.48,1.08-2.96-.15-5.89-.54-8.8-1.03-1.59-.27-3.19-.56-4.81-.65-2.75-.15-5.34.63-7.94,1.36-1.26.36-2.52.71-3.83.92-2.34.38-4.29-.4-6.09-1.78-.94-.72-1.83-1.48-2.63-2.35-.33-.36-.74-.56-1.2-.69-2.48-.69-4.85-.63-7.14.73-1.21.72-2.5,1.3-3.79,1.87-2.64,1.18-5.25,1.03-7.84-.12-.9-.4-1.82-.75-2.79-.96-.53-.12-1.03-.31-1.48-.63-.47-.34-1.01-.49-1.59-.47-.74.03-1.48-.26-2.24-.01-.18.06-.39,0-.48-.2-.12-.26.13-.34.27-.41.8-.41,1.33-1.19,2.18-1.53.23-.09.43-.3.54-.54.13-.29.35-.53.61-.68,1.86-1.03,3.08-2.74,4.44-4.28,3.68-4.15,6.06-9.1,8.41-14.05.63-1.32,1.39-2.56,2.14-3.8,1-1.66,2.49-2.43,4.32-2.7.63-.1,1.25-.21,1.71-.16Z"/>
    <circle id="logo_light_icon-moon" class="cls-1" cx="76.09" cy="34.64" r="5.2"/>
    <path id="logo_light_icon-halo" class="cls-1" d="M48.63,117.96C22.29,112.48,2.45,89.09,2.45,61.16,2.45,29.17,28.47,3.14,60.46,3.14s58.01,26.02,58.01,58.01c0,28.54-20.71,52.33-47.89,57.13l-13.76-1.42-8.2,1.09ZM60.46,6.14C30.13,6.14,5.45,30.82,5.45,61.16s24.68,55.01,55.01,55.01,55.01-24.68,55.01-55.01S90.8,6.14,60.46,6.14Z"/>
  
</svg>