<?xml version="1.0" encoding="UTF-8"?>
<svg id="Layer_2" data-name="Layer 2" xmlns="http://www.w3.org/2000/svg" viewBox="0 0 117.94 188.23">
  <defs>
    <style>
      .cls-1 {
        fill: #fcf9e5;
        stroke-width: 0px;
      }
    </style>
  </defs>
  <g id="logo_light">
    <g id="logo_light_title">
      <path class="cls-1" d="M24.07,146.07c0,4.18-2.97,6.5-9.38,6.5-2.41,0-5.91-.15-7.96-.15s-2.91.09-3.75.09c-.96,0-1.36-.53-1.36-1.08,0-1.39,1.8-.84,1.8-3.06v-14.06c0-2.23-1.8-1.67-1.8-3.06,0-.56.4-1.08,1.36-1.08.84,0,1.61.09,3.75.09s4.27-.25,6.9-.25c5.32,0,8.82,2.17,8.82,5.98,0,1.7-.8,3.41-3,4.49,2.85.93,4.61,2.91,4.61,5.6ZM10.05,138.49c0,.62.22.87,1.15.87h1.02c1.64,0,3.19-.84,3.19-2.97s-1.46-3.38-3.37-3.38h-.19c-.96,0-1.8.25-1.8,1.39v4.09ZM16.83,146.1c0-2.57-1.8-3.96-4.71-3.96h-1.02c-.77,0-1.05.31-1.05,1.11v4.21c0,1.95.62,2.17,2.57,2.17h.31c2.29,0,3.9-1.42,3.9-3.53Z"/>
      <path class="cls-1" d="M41.82,138.98c0,1.11-.59,2.54-1.39,4.27-.31.68-.74,1.08-1.33,1.08-.56,0-.96-.46-1.24-.96-.68-1.21-1.3-1.98-2.26-1.98-1.02,0-2.45,1.08-2.45,4.37v2.79c0,2.14,2.1,1.49,2.1,2.94,0,.5-.37,1.02-1.3,1.02-.87,0-1.7-.09-3.81-.09-1.89,0-2.63.09-3.41.09-.93,0-1.3-.5-1.3-1.02,0-1.33,1.7-.81,1.7-2.94v-5.76c0-2.01-1.92-1.27-1.92-2.79,0-.8.96-1.27,3.56-2.38,2.38-1.02,2.82-1.11,3.19-1.11.93,0,1.18.74,1.18,1.76v2.17c.8-2.2,2.97-4.06,5.32-4.06,2.01,0,3.34,1.21,3.34,2.6Z"/>
      <path class="cls-1" d="M62.1,149.76c0,1.05-1.61,2.91-4.8,2.91-1.46,0-2.79-.68-3.62-1.95-1.11.93-3.13,2.07-5.82,2.07-3.56,0-5.7-2.01-5.7-4.89s2.32-5.14,6.66-5.14c1.46,0,2.6.19,3.38.4l-.03-.31c-.28-2.01-1.49-3.03-3.03-3.03-1.36,0-2.38.4-3.25.77-.56.25-1.08.53-1.49.53-.43,0-.93-.37-.93-1.02,0-.77.77-1.55,1.33-1.98,1.39-1.08,3.44-1.83,6.25-1.83,3.78,0,6.47,1.46,6.97,5.14l.68,4.98c.25,1.83.96,2.26,2.76,2.6.34.06.65.31.65.74ZM52.97,148.7l-.46-3.31c-.37-.09-.9-.15-1.55-.15-1.49,0-2.66.56-2.66,1.98s1.02,2.26,2.29,2.26c.93,0,1.86-.4,2.38-.77Z"/>
      <path class="cls-1" d="M83.43,151.52c0,.56-.5.96-1.33.96-.77,0-1.46-.09-3.34-.09s-2.63.09-3.41.09c-.99,0-1.39-.5-1.39-1.02,0-1.18,1.58-.96,1.58-2.45,0-.4-.06-.96-.19-1.8l-.43-3.1c-.34-2.51-1.18-3.34-2.42-3.34-.99,0-2.2.74-2.2,3.78v3.99c0,2.14,1.73,1.61,1.73,2.94,0,.5-.37,1.02-1.3,1.02-.77,0-1.55-.09-3.44-.09s-2.63.09-3.41.09c-.93,0-1.3-.5-1.3-1.02,0-1.33,1.7-.81,1.7-2.94v-5.76c0-2.01-1.92-1.27-1.92-2.79,0-.8.96-1.27,3.56-2.38,2.38-1.02,2.82-1.11,3.19-1.11.93,0,1.18.74,1.18,1.76v1.21h.03c.93-1.64,2.82-3.1,5.26-3.1,2.82,0,4.67,2.07,5.17,6.01l.74,5.76c.34,2.66,1.92,1.98,1.92,3.37Z"/>
      <path class="cls-1" d="M97.06,149.17c0,.59-.43,1.27-.87,1.7-1.08,1.08-2.63,1.98-5.2,1.98-2.79,0-5.05-1.67-5.05-3.68,0-.65.12-3.03.12-5.17v-4.46h-1.33c-.77,0-1.33-.46-1.33-1.15,0-.74.46-1.11,1.24-1.58,2.07-1.24,3.19-2.14,4.43-3.78,1.02-1.36,1.39-1.98,2.07-1.98.59,0,.93.37.93,1.33v4.37h3.72c.59,0,.93.28.93.96,0,.25-.06.68-.09.9-.09.62-.37.93-.99.93h-3.56v6.81c0,2.45.74,3,1.64,3,.37,0,.74-.09,1.46-.68.22-.19.53-.46.96-.46.62,0,.93.46.93.96Z"/>
      <path class="cls-1" d="M117.93,149.76c0,1.05-1.61,2.91-4.8,2.91-1.46,0-2.79-.68-3.62-1.95-1.11.93-3.13,2.07-5.82,2.07-3.56,0-5.7-2.01-5.7-4.89s2.32-5.14,6.66-5.14c1.46,0,2.6.19,3.38.4l-.03-.31c-.28-2.01-1.49-3.03-3.03-3.03-1.36,0-2.38.4-3.25.77-.56.25-1.08.53-1.49.53-.43,0-.93-.37-.93-1.02,0-.77.77-1.55,1.33-1.98,1.39-1.08,3.44-1.83,6.25-1.83,3.78,0,6.47,1.46,6.97,5.14l.68,4.98c.25,1.83.96,2.26,2.76,2.6.34.06.65.31.65.74ZM108.79,148.7l-.46-3.31c-.37-.09-.9-.15-1.55-.15-1.49,0-2.66.56-2.66,1.98s1.02,2.26,2.29,2.26c.93,0,1.86-.4,2.38-.77Z"/>
      <path class="cls-1" d="M25.85,175.75c0,4.18-2.97,6.5-9.38,6.5-2.41,0-5.91-.15-7.96-.15s-2.91.09-3.75.09c-.96,0-1.36-.53-1.36-1.08,0-1.39,1.8-.84,1.8-3.06v-14.06c0-2.23-1.8-1.67-1.8-3.06,0-.56.4-1.08,1.36-1.08.84,0,1.61.09,3.75.09s4.27-.25,6.9-.25c5.32,0,8.82,2.17,8.82,5.98,0,1.7-.8,3.41-3,4.49,2.85.93,4.61,2.91,4.61,5.6ZM11.83,168.16c0,.62.22.87,1.15.87h1.02c1.64,0,3.19-.84,3.19-2.97s-1.46-3.38-3.37-3.38h-.19c-.96,0-1.8.25-1.8,1.39v4.09ZM18.61,175.78c0-2.57-1.8-3.96-4.71-3.96h-1.02c-.77,0-1.05.31-1.05,1.11v4.21c0,1.95.62,2.17,2.57,2.17h.31c2.29,0,3.9-1.42,3.9-3.53Z"/>
      <path class="cls-1" d="M44.71,178.01c0,.28-.09.53-.28.87-.93,1.58-3.9,3.9-8.42,3.9-5.2,0-8.76-3.47-8.76-8.33,0-5.39,4.33-8.7,9.2-8.7s7.68,3.37,7.68,6.38c0,1.08-.34,1.21-.99,1.42l-8.7,2.79c.99,1.52,2.54,2.66,4.55,2.66,1.33,0,2.42-.43,3.65-1.27.68-.46.9-.62,1.24-.62.59,0,.84.62.84.9ZM33.26,172.28c0,.53.06,1.05.19,1.58l3.93-1.36c.5-.15.8-.43.8-1.02,0-1.36-1.11-2.94-2.54-2.94s-2.38,1.36-2.38,3.75Z"/>
      <path class="cls-1" d="M62.58,168.66c0,1.11-.59,2.54-1.39,4.27-.31.68-.74,1.08-1.33,1.08-.56,0-.96-.46-1.24-.96-.68-1.21-1.3-1.98-2.26-1.98-1.02,0-2.45,1.08-2.45,4.37v2.79c0,2.14,2.1,1.49,2.1,2.94,0,.5-.37,1.02-1.3,1.02-.87,0-1.7-.09-3.81-.09-1.89,0-2.63.09-3.41.09-.93,0-1.3-.5-1.3-1.02,0-1.33,1.7-.81,1.7-2.94v-5.76c0-2.01-1.92-1.27-1.92-2.79,0-.8.96-1.27,3.56-2.38,2.38-1.02,2.82-1.11,3.19-1.11.93,0,1.18.74,1.18,1.76v2.17c.8-2.2,2.97-4.06,5.32-4.06,2.01,0,3.34,1.21,3.34,2.6Z"/>
      <path class="cls-1" d="M82.86,182.43c0,3.41-3.72,5.73-10,5.73s-9.85-1.61-9.85-3.81c0-1.15.84-2.01,2.38-2.6-.99-.56-1.67-1.46-1.67-2.76s.96-2.85,2.48-3.81c-1.8-.87-2.76-2.17-2.76-3.81,0-2.94,3.16-5.63,9.32-5.63.37,0,.74,0,1.08.03.25-3.13,2.48-5.45,4.02-5.45.81,0,1.7.43,3.13,1.67.53.46.9.99.9,1.49,0,.59-.34,1.08-1.11,1.11-2.32.06-4.3.28-4.71,1.49,3.22.71,4.89,2.48,4.89,4.61,0,2.88-3,5.48-9.26,5.48-1.18,0-2.23-.09-3.16-.28-.25.31-.4.59-.4.71,0,.5.68.71,2.2.81,2.88.15,4.86.28,7.28.43,2.72.19,5.23,1.55,5.23,4.58ZM77.23,184.57c0-.56-.5-.96-1.7-1.11-2.1-.28-4.83-.56-7.49-.87h-.03c-.4.43-.59.99-.59,1.36,0,1.49,2.38,1.95,5.45,1.95,3.22,0,4.37-.62,4.37-1.33ZM69.24,170.79c0,2.07,1.55,3.13,3.06,3.13,1.7,0,2.85-1.18,2.85-2.76,0-2.07-1.55-3.13-3.07-3.13-1.7,0-2.85,1.18-2.85,2.76Z"/>
      <path class="cls-1" d="M100.39,178.01c0,.28-.09.53-.28.87-.93,1.58-3.9,3.9-8.42,3.9-5.2,0-8.76-3.47-8.76-8.33,0-5.39,4.33-8.7,9.2-8.7s7.68,3.37,7.68,6.38c0,1.08-.34,1.21-.99,1.42l-8.7,2.79c.99,1.52,2.54,2.66,4.55,2.66,1.33,0,2.42-.43,3.65-1.27.68-.46.9-.62,1.24-.62.59,0,.84.62.84.9ZM88.93,172.28c0,.53.06,1.05.19,1.58l3.93-1.36c.5-.15.8-.43.8-1.02,0-1.36-1.11-2.94-2.54-2.94s-2.38,1.36-2.38,3.75Z"/>
      <path class="cls-1" d="M114.51,178.84c0,.59-.43,1.27-.87,1.7-1.08,1.08-2.63,1.98-5.2,1.98-2.79,0-5.05-1.67-5.05-3.68,0-.65.12-3.03.12-5.17v-4.46h-1.33c-.77,0-1.33-.46-1.33-1.15,0-.74.46-1.11,1.24-1.58,2.07-1.24,3.19-2.14,4.43-3.78,1.02-1.36,1.39-1.98,2.07-1.98.59,0,.93.37.93,1.33v4.37h3.72c.59,0,.93.28.93.96,0,.25-.06.68-.09.9-.09.62-.37.93-.99.93h-3.56v6.81c0,2.45.74,3,1.64,3,.37,0,.74-.09,1.46-.68.22-.19.53-.46.96-.46.62,0,.93.46.93.96Z"/>
    </g>
    <g id="logo_light_icon">
      <path id="logo_light_icon-mountain" class="cls-1" d="M29.22,83.95c.73.03,1.26.06,1.8.11.93.07,1.56-.57,2.1-1.24.99-1.21,1.52-2.65,1.78-4.17.74-4.4,2.31-8.51,4.36-12.44,1.07-2.05,2.09-4.1,2.36-6.44.21-1.81.4-3.63.66-5.44.23-1.6.43-3.2.97-4.74.25-.71.71-1.14,1.42-1.32,1.12-.29,2.19-.33,3.26.31.9.53,1.85,1.01,2.91,1.23.68.14,1.23.06,1.81-.3,1.35-.83,2.56-1.83,3.79-2.81,1.01-.8,2.19-1.09,3.41-1.15.73-.04,1.42.34,1.77,1.06.39.8.73,1.63,1.07,2.45.59,1.41,1.36,2.71,2.68,3.54,1.66,1.06,2.57,2.62,3.18,4.42.28.82.58,1.64,1.09,2.36.73,1.03,1.96,1.44,3.16,1.09.79-.23,1.59-.41,2.4-.52.94-.13,1.97.81,1.93,1.76-.08,1.85.34,3.53,1.52,5,.58.71,1.3,1.25,2.09,1.65,1.96,1.02,3.05,2.6,3.51,4.75.49,2.3,1.46,4.4,2.98,6.23,1.46,1.77,2.23,3.81,2.53,6.09.24,1.83.9,3.54,1.89,5.12,1.38,2.19,2.72,4.39,4.07,6.6.53.86,1.26,1.19,2.27,1.25,1.41.09,2.63.63,3.18,2.1.29.77.55,1.55.86,2.31.58,1.38,1.65,2.38,2.64,3.45,1.42,1.52,3.2,2.53,4.89,3.67.29.2.59.39.85.62,1.67,1.44,1.68,3.04.77,5.18-.03.06-.09.12-.11.18-.67,1.99-1.77,1.88-3.34,1.28-1.93-.75-3.86-1.49-5.91-1.83-.67-.11-1.35-.22-2.03-.2-2.38.06-4.76-.09-7.13-.18-2.44-.1-4.87-.3-7.31-.5-2.56-.2-5.12-.03-7.63.57-3.44.82-6.93,1.26-10.48,1.08-2.96-.15-5.89-.54-8.8-1.03-1.59-.27-3.19-.56-4.81-.65-2.75-.15-5.34.63-7.94,1.36-1.26.36-2.52.71-3.83.92-2.34.38-4.29-.4-6.09-1.78-.94-.72-1.83-1.48-2.63-2.35-.33-.36-.74-.56-1.2-.69-2.48-.69-4.85-.63-7.14.73-1.21.72-2.5,1.3-3.79,1.87-2.64,1.18-5.25,1.03-7.84-.12-.9-.4-1.82-.75-2.79-.96-.53-.12-1.03-.31-1.48-.63-.47-.34-1.01-.49-1.59-.47-.74.03-1.48-.26-2.24-.01-.18.06-.39,0-.48-.2-.12-.26.13-.34.27-.41.8-.41,1.33-1.19,2.18-1.53.23-.09.43-.3.54-.54.13-.29.35-.53.61-.68,1.86-1.03,3.08-2.74,4.44-4.28,3.68-4.15,6.06-9.1,8.41-14.05.63-1.32,1.39-2.56,2.14-3.8,1-1.66,2.49-2.43,4.32-2.7.63-.1,1.25-.21,1.71-.16Z"/>
      <circle id="logo_light_icon-moon" class="cls-1" cx="73.81" cy="31.58" r="5.2"/>
      <path id="logo_light_icon-halo" class="cls-1" d="M46.36,114.89C20.02,109.41.17,86.03.17,58.09.17,26.1,26.2.08,58.19.08s58.01,26.02,58.01,58.01c0,28.54-20.71,52.33-47.89,57.13l-13.76-1.42-8.2,1.09ZM58.19,3.08C27.85,3.08,3.17,27.75,3.17,58.09s24.68,55.01,55.01,55.01,55.01-24.68,55.01-55.01S88.52,3.08,58.19,3.08Z"/>
    </g>
  </g>
</svg>