<?xml version="1.0" encoding="UTF-8"?>
<svg id="Lager_1" data-name="Lager 1" xmlns="http://www.w3.org/2000/svg" viewBox="0 0 990.57 405.4">
  <defs>
    <style>
      .cls-1 {
        fill: #ff9667;
        stroke-width: 0px;
      }
    </style>
  </defs>
  <path class="cls-1" d="M943.29,63.61c-10.9,1.08-22.18,2.2-32.46,5.78-10.28,3.59-18.62,9.31-26.68,14.85-7.37,5.06-14.33,9.84-22.64,13.11-9.87,3.89-21.55,3.64-33.91,3.39-9.17-.19-18.66-.39-27.77,1.15-12.19,2.05-22.48,6.59-32.43,10.98-7.41,3.27-14.41,6.36-22.16,8.51-8.31,2.31-17.05,3.72-25.5,5.08-13.89,2.24-28.25,4.56-41.37,10.87-11.06,5.32-20.25,12.81-29.14,20.06-9.91,8.08-19.27,15.71-30.84,20.41-10.54,4.28-21.13,4.77-32.34,5.3-7,.33-14.23.66-21.9,1.89-8.22,1.31-13.82,5.07-18.76,8.39-4.15,2.79-7.74,5.2-12.41,6.13-6.73,1.34-13.59,1.9-20.84,2.5-12.88,1.07-26.21,2.17-38.57,7.87-11.48,5.29-20.72,13.14-29.66,20.73-8.46,7.19-16.46,13.97-26.02,18.57-10.76,5.17-23.06,6.66-36.08,8.23-7.79.94-15.84,1.91-23.91,3.72-8.57,1.91-15.45,5.46-22.1,8.89-6.71,3.47-13.06,6.74-20.49,7.93-7.25,1.16-14.73,1.23-22.66,1.31-12,.11-24.41.23-36.22,4.35-10.02,3.5-18.22,9.22-26.15,14.75-7.54,5.26-14.66,10.23-22.9,13.1-8.27,2.88-17.89,3.8-28.07,4.78-10.77,1.03-21.91,2.1-32.17,5.62-12.78,4.39-22.04,12.75-30.99,20.83-6.53,5.89-12.69,11.46-19.82,15.2-9.47,4.97-20.75,7.24-32.69,9.64-9.03,1.82-18.36,3.69-27.34,6.85l3.96,6.18s-.01,0-.02,0l8.62,13.44c7.99-2.81,16.78-4.58,25.29-6.29,12.45-2.5,25.32-5.09,36.57-10.99,8.53-4.48,15.56-10.82,22.35-16.95,8.4-7.58,16.34-14.75,26.54-18.25,8.53-2.93,18.24-3.86,28.52-4.84,10.7-1.02,21.77-2.08,31.79-5.58,10.01-3.49,18.21-9.21,26.13-14.74,7.55-5.26,14.67-10.24,22.92-13.11,9.37-3.27,19.86-3.36,30.97-3.47,8.23-.08,16.74-.16,25.25-1.52,9.85-1.58,17.51-5.53,24.93-9.36,6.13-3.16,11.92-6.15,18.62-7.65,7.29-1.63,14.93-2.55,22.32-3.44,13.72-1.66,27.9-3.37,40.83-9.59,11.05-5.31,20.02-12.93,28.7-20.3,8.69-7.38,16.9-14.35,26.79-18.91,9.99-4.61,21.35-5.55,33.38-6.54,7.41-.61,15.07-1.25,22.72-2.77,7.55-1.5,12.85-5.06,17.52-8.19,4.33-2.91,8.07-5.42,13.04-6.21,6.74-1.07,13.49-1.39,20.01-1.69,12.1-.57,24.62-1.15,37.57-6.41,13.41-5.44,23.94-14.03,34.12-22.34,8.72-7.11,16.95-13.83,26.64-18.48,11.24-5.4,23.89-7.45,37.29-9.61,8.89-1.43,18.07-2.92,27.22-5.46,8.77-2.44,16.57-5.88,24.12-9.21,9.55-4.22,18.57-8.2,28.86-9.93,7.52-1.27,15.76-1.1,24.49-.91,13.5.28,27.46.57,40.24-4.46,9.73-3.83,17.63-9.25,25.26-14.49,7.7-5.29,14.98-10.28,23.53-13.26,8.55-2.98,18.39-3.96,28.8-4.99,10.32-1.02,20.98-2.08,31.18-5.19l-8.02-13.64c-.09.03-.18.05-.26.07l-3.68-6.26c-8.72,2.66-18.13,3.59-28.09,4.58Z"/>
  <path class="cls-1" d="M915.27,19.65c-10.9,1.08-22.18,2.2-32.46,5.78-10.28,3.59-18.62,9.31-26.69,14.85-7.37,5.06-14.33,9.84-22.64,13.11-9.87,3.89-21.55,3.64-33.91,3.39-9.17-.19-18.66-.39-27.77,1.15-12.19,2.05-22.48,6.59-32.43,10.99-7.41,3.27-14.41,6.36-22.15,8.51-8.31,2.31-17.05,3.72-25.5,5.08-13.89,2.24-28.25,4.56-41.37,10.87-11.06,5.32-20.25,12.81-29.14,20.06-9.91,8.08-19.27,15.71-30.84,20.41-10.54,4.28-21.13,4.77-32.34,5.3-6.99.33-14.23.67-21.9,1.89-8.22,1.31-13.82,5.07-18.76,8.39-4.15,2.79-7.74,5.2-12.41,6.12-6.73,1.34-13.58,1.9-20.84,2.5-12.89,1.07-26.21,2.17-38.57,7.87-11.48,5.29-20.72,13.14-29.66,20.73-8.46,7.19-16.46,13.97-26.02,18.57-10.76,5.17-23.06,6.66-36.08,8.23-7.79.94-15.84,1.91-23.92,3.72-8.57,1.91-15.45,5.46-22.1,8.89-6.71,3.47-13.06,6.74-20.49,7.93-7.25,1.16-14.73,1.23-22.66,1.31-12,.11-24.41.23-36.22,4.35-10.02,3.5-18.22,9.22-26.15,14.75-7.54,5.26-14.66,10.23-22.9,13.1-8.27,2.88-17.89,3.8-28.07,4.78-10.77,1.03-21.91,2.1-32.17,5.62-12.78,4.39-22.04,12.75-30.99,20.83-6.53,5.89-12.69,11.46-19.83,15.2-9.47,4.97-20.75,7.24-32.69,9.64-9.03,1.82-18.36,3.69-27.34,6.85l3.96,6.18s-.01,0-.02,0l8.62,13.44c7.99-2.81,16.78-4.58,25.29-6.29,12.45-2.5,25.31-5.09,36.57-10.99,8.53-4.48,15.56-10.82,22.35-16.95,8.4-7.58,16.34-14.75,26.54-18.25,8.53-2.93,18.24-3.86,28.52-4.84,10.7-1.02,21.77-2.08,31.79-5.58,10.01-3.49,18.21-9.21,26.13-14.74,7.55-5.26,14.67-10.24,22.92-13.11,9.37-3.27,19.86-3.36,30.97-3.47,8.23-.08,16.73-.16,25.25-1.52,9.85-1.58,17.51-5.53,24.93-9.36,6.13-3.16,11.92-6.15,18.62-7.65,7.29-1.63,14.93-2.55,22.32-3.44,13.72-1.66,27.9-3.37,40.83-9.59,11.05-5.31,20.02-12.93,28.7-20.3,8.69-7.38,16.9-14.35,26.79-18.91,9.99-4.61,21.35-5.55,33.38-6.54,7.41-.61,15.07-1.25,22.72-2.77,7.55-1.5,12.85-5.06,17.52-8.19,4.33-2.91,8.07-5.42,13.04-6.21,6.74-1.07,13.49-1.39,20.01-1.69,12.1-.57,24.62-1.15,37.57-6.41,13.41-5.44,23.94-14.03,34.12-22.34,8.72-7.11,16.95-13.82,26.64-18.48,11.24-5.4,23.89-7.45,37.28-9.61,8.89-1.43,18.07-2.92,27.22-5.46,8.77-2.44,16.57-5.88,24.12-9.21,9.55-4.21,18.57-8.2,28.86-9.93,7.52-1.27,15.76-1.09,24.49-.91,13.5.28,27.46.57,40.24-4.46,9.73-3.83,17.63-9.25,25.27-14.49,7.7-5.29,14.98-10.28,23.53-13.26,8.55-2.98,18.39-3.96,28.8-4.99,10.31-1.02,20.98-2.08,31.18-5.19l-8.02-13.64c-.09.03-.18.05-.26.07l-3.68-6.26c-8.72,2.66-18.13,3.59-28.09,4.58Z"/>
</svg>