<?xml version="1.0" encoding="UTF-8"?>
<svg id="Lager_1" data-name="Lager 1" xmlns="http://www.w3.org/2000/svg" viewBox="0 0 990.57 405.4">
  <defs>
    <style>
      .cls-1 {
        fill: #f7a6ee;
        stroke-width: 0px;
      }
    </style>
  </defs>
  <path class="cls-1" d="M967.37,343.61c-10.1-5.38-20.53-10.95-31.56-13.79-11.03-2.85-21.63-2.71-31.89-2.58-9.37.12-18.22.23-27.35-1.75-10.85-2.35-20.84-9.33-31.41-16.72-7.85-5.48-15.96-11.15-24.77-15.1-11.79-5.28-23.38-7.31-34.6-9.26-8.35-1.46-16.25-2.83-24.23-5.45-8.56-2.81-16.98-6.65-25.11-10.37-13.37-6.1-27.19-12.42-42.29-14.55-12.72-1.8-25.11-.62-37.08.53-13.35,1.27-25.96,2.47-38.77-.16-11.66-2.39-21.14-8.1-31.17-14.14-6.26-3.77-12.74-7.67-20.11-11.06-7.9-3.63-14.97-3.61-21.21-3.59-5.24.01-9.77.03-14.37-1.88-6.63-2.74-12.91-6.22-19.56-9.91-11.81-6.54-24.01-13.31-38.09-15.53-13.07-2.06-25.71-.6-37.92.8-11.57,1.33-22.5,2.59-33.5,1.04-12.38-1.75-23.93-7.59-36.15-13.77-7.31-3.7-14.87-7.52-22.94-10.64-8.56-3.31-16.61-4.21-24.4-5.09-7.86-.88-15.29-1.72-22.44-4.99-6.98-3.19-13.51-7.47-20.43-12-10.48-6.86-21.31-13.95-33.98-17.22-10.75-2.78-21.23-2.56-31.37-2.36-9.64.2-18.74.38-27.58-1.9-8.87-2.29-17.76-7.07-27.17-12.12-9.95-5.35-20.24-10.88-31.22-13.77-13.67-3.6-26.62-1.71-39.14.12-9.13,1.33-17.75,2.59-26.14,1.7-11.14-1.18-22.26-5.75-34.03-10.58-8.9-3.66-18.1-7.43-27.75-9.9l-.2,7.66s-.01,0-.02,0l-.43,16.67c8.59,2.19,17.26,5.75,25.64,9.19,12.27,5.04,24.96,10.25,38.19,11.65,10.04,1.06,19.86-.37,29.36-1.76,11.75-1.71,22.85-3.33,33.76-.46,9.13,2.4,18.1,7.22,27.6,12.33,9.89,5.31,20.11,10.81,30.86,13.58,10.74,2.77,21.22,2.56,31.34,2.35,9.64-.2,18.75-.38,27.6,1.9,10.05,2.59,19.21,8.59,28.91,14.94,7.18,4.7,14.61,9.57,22.81,13.32,9.47,4.34,18.45,5.35,27.13,6.32,7.18.81,13.96,1.57,20.65,4.15,7.29,2.82,14.45,6.44,21.39,9.95,12.88,6.51,26.19,13.25,41.06,15.34,12.71,1.79,24.98.38,36.84-.99,11.88-1.37,23.11-2.66,34.36-.89,11.38,1.79,21.79,7.56,32.81,13.67,6.79,3.76,13.81,7.65,21.34,10.77,7.43,3.08,14.12,3.06,20.02,3.04,5.47-.01,10.19-.03,14.97,2.17,6.48,2.98,12.52,6.61,18.35,10.13,10.83,6.52,22.04,13.27,36.37,16.22,14.83,3.05,29.02,1.69,42.74.39,11.74-1.12,22.84-2.18,33.99-.6,12.93,1.83,25.11,7.39,38,13.27,8.55,3.91,17.4,7.94,26.82,11.04,9.04,2.97,17.84,4.5,26.35,5.99,10.77,1.88,20.94,3.65,30.88,8.11,7.27,3.26,14.32,8.19,21.79,13.4,11.55,8.07,23.49,16.41,37.53,19.46,10.7,2.32,20.74,2.19,30.44,2.06,9.79-.13,19.04-.24,28.22,2.12,9.17,2.37,18.28,7.22,27.92,12.36,9.55,5.09,19.43,10.36,30.11,13.57l1.07-16.49c-.09-.03-.18-.06-.27-.09l.49-7.56c-9.13-2.75-17.84-7.39-27.06-12.31Z"/>
  <path class="cls-1" d="M968.92,289.2c-10.1-5.38-20.53-10.95-31.56-13.79-11.03-2.85-21.63-2.71-31.89-2.58-9.37.12-18.22.23-27.35-1.74-10.85-2.35-20.84-9.33-31.41-16.72-7.85-5.48-15.96-11.15-24.77-15.1-11.79-5.28-23.38-7.31-34.6-9.26-8.35-1.46-16.24-2.83-24.23-5.45-8.56-2.81-16.98-6.65-25.11-10.37-13.37-6.1-27.19-12.42-42.29-14.55-12.72-1.8-25.11-.62-37.08.53-13.35,1.27-25.96,2.47-38.76-.15-11.66-2.39-21.14-8.1-31.17-14.15-6.26-3.77-12.74-7.67-20.11-11.06-7.9-3.63-14.97-3.61-21.21-3.59-5.24.01-9.77.03-14.37-1.88-6.63-2.74-12.91-6.22-19.55-9.91-11.81-6.54-24.02-13.31-38.1-15.53-13.07-2.06-25.71-.6-37.92.8-11.57,1.33-22.5,2.59-33.5,1.04-12.38-1.74-23.93-7.59-36.15-13.77-7.31-3.7-14.87-7.52-22.94-10.64-8.56-3.31-16.61-4.21-24.4-5.09-7.86-.88-15.29-1.72-22.44-4.99-6.98-3.19-13.51-7.47-20.43-12-10.48-6.86-21.31-13.95-33.98-17.22-10.75-2.78-21.23-2.56-31.37-2.36-9.64.2-18.74.38-27.58-1.9-8.87-2.29-17.76-7.07-27.17-12.12-9.95-5.35-20.24-10.88-31.22-13.77-13.67-3.6-26.62-1.71-39.14.12-9.13,1.33-17.75,2.59-26.14,1.7-11.14-1.18-22.26-5.74-34.03-10.58-8.9-3.66-18.1-7.43-27.75-9.9l-.2,7.66s-.01,0-.02,0l-.43,16.67c8.59,2.19,17.26,5.75,25.64,9.19,12.27,5.04,24.96,10.25,38.19,11.65,10.04,1.06,19.86-.37,29.36-1.76,11.75-1.71,22.85-3.33,33.76-.46,9.13,2.4,18.1,7.22,27.59,12.33,9.89,5.31,20.11,10.81,30.86,13.58,10.74,2.77,21.22,2.56,31.34,2.35,9.64-.2,18.75-.38,27.6,1.9,10.05,2.59,19.21,8.59,28.91,14.95,7.18,4.7,14.61,9.57,22.81,13.32,9.47,4.34,18.45,5.35,27.13,6.32,7.18.81,13.96,1.57,20.65,4.15,7.29,2.82,14.45,6.44,21.39,9.95,12.88,6.51,26.19,13.25,41.06,15.34,12.71,1.79,24.98.38,36.84-.99,11.88-1.37,23.11-2.66,34.36-.89,11.38,1.79,21.79,7.56,32.81,13.67,6.79,3.76,13.81,7.65,21.34,10.77,7.43,3.08,14.12,3.06,20.02,3.04,5.47-.01,10.19-.03,14.97,2.17,6.48,2.98,12.52,6.61,18.35,10.13,10.83,6.52,22.04,13.27,36.37,16.22,14.84,3.05,29.02,1.69,42.74.39,11.74-1.12,22.84-2.18,33.98-.6,12.93,1.83,25.11,7.39,38,13.27,8.55,3.91,17.4,7.95,26.83,11.04,9.04,2.97,17.84,4.5,26.35,5.99,10.77,1.88,20.93,3.65,30.88,8.11,7.27,3.26,14.32,8.19,21.79,13.4,11.55,8.07,23.49,16.41,37.54,19.46,10.7,2.32,20.74,2.19,30.45,2.06,9.79-.13,19.04-.24,28.22,2.12,9.17,2.37,18.28,7.22,27.92,12.36,9.55,5.09,19.43,10.36,30.11,13.57l1.07-16.49c-.09-.03-.18-.06-.27-.09l.49-7.56c-9.13-2.75-17.84-7.39-27.06-12.31Z"/>
</svg>