<?xml version="1.0" encoding="UTF-8"?><svg id="Lager_1" xmlns="http://www.w3.org/2000/svg" viewBox="0 0 492.06 447.12"><defs><style>.cls-1{fill:#0d0c0b;}.cls-1,.cls-2,.cls-3{stroke-width:0px;}.cls-2{fill:#fcf9e6;}.cls-3{fill:#ff9667;}</style></defs><path class="cls-1" d="m367.59,95.08c13.02,13.95,21.75,33.58,16.95,52.84-4.74,22.2-23.28,44.14-47.49,43.06-7.73.23-16.14-3.15-23.46.3-2.72,1.36-5.13,2.38-4.7,5.89.07,5.29-.84,10.55-2.88,15.43-2.5,6.15-6.94,11.48-11.66,16.11-3.12,2.98-.98,7.48-1.13,11.21.99,13.69.13,27.42.23,41.1,4.6,16.49,10.33,32.69,15.33,49.08,1.59,5.5,8.21.94,10.66,6.69,1.37,3.77-2.88,6.18-5.07,8.25-.72.94-.97,2.37-1.97,3.02-1.23.46-2.13-1.1-3.14-1.6-1.55-.92-3.9-.46-5.66-1.28-2.87-1.6-3.75-1.54-4.62,1.74-5.87,18.22-11.51,36.53-17.42,54.73-2.72,7.46-3.78,15.54-7.23,22.69-3.83,7.95-14.94,11.28-22.01,5.46-7.5-5.63-7.65-11.9-3.88-19.77,5.52-11.74,11.44-23.31,16.9-35.1,1.07-2,1.32-4.28.64-6.45-2.08-8.58-1.97-17.52-2.63-26.29-.33-5.21-.7-10.41-1.19-15.61-.74-7.9-1.74-15.76-3.23-23.55-2.89-17.69-9.16-36.39-16.88-7.07-2.21,9.66-3.21,19.62-3.56,29.51.11,2.91-.58,6.38.3,9.08.6.2,1.18-.88,1.57-1.36,2.57-3.28,4.19-7.56,7.4-10.28,2.4-1.51,5.5-.89,8.17-.56,3.64.36,5.02,2.09,5.19,4.34.14,1.99-.68,4.39-1.77,6.59-11.49,24.04-22.91,48.19-34.38,72.28-2.23,4.97-3.39,10.58-7.35,14.52-4.18,4.44-11.09,5.97-16.62,3.28l-.07-.04c-9.11-4.78-11.79-14.59-5.05-22.69,5.01-7.45,9.88-15.01,14.85-22.48,6.83-11.38,8.28-7.69,4.8-20.88-5.36-28.71-7.16-57.98-8.5-87.09-.47-1.4-1.22.84-1.48,1.45-6.81,18.21-13.67,36.56-20.44,54.84-.45,1.25-1.01,2.61-.52,3.87.55,1.5,2.67,2.59,3.45,4.33,2.51,5.02-3.03,7.21-7.23,6.84-1.7.04-2.4,1.75-3.63,2.58-1.87.89-2.01-1.74-1.92-3.01,0-3.2-4.04-5.49-3.15-9.02.54-3.01,3.54-4.01,6.26-3.96,2.59-.12,3.14-2.79,3.91-4.76,8.03-22.19,16.95-44.12,24.5-66.46.6-4.68.25-9.43.6-14.13.03-1.11.05-2.24-.26-3.32-.43-1.64-1.79-2.95-2.97-4.18-2.94-3.11-5.67-6.63-7.83-10.35-7.67-12.87-7.59-28.74-4.35-42.96,3.15-13.76,8.81-26.89,15.64-39.22,1.25-3.12,6.92-9.6,5.87-12.33-14.81-17.69-32.07-36.32-55.4-41.84-27.33-6.32-55.14,3.72-82.67.91-15.74-1.77-31.71-6.77-45.25-15.16-3.31-2.82-8.55-5.18-7.85-9.19,1.03-3.01,4.22-5.02,6.32-7.36,3.84-3.86,7.29-8.07,9.79-12.96,3.68-6.29,9.66-23.85,17.05-24.76,3.06.59,3.82,5.47,5.43,7.93,11.22,22.74,33.58,36.37,58.98,34.63,15.93-.8,32.17-3.04,47.89.67,15.6,3.28,30.34,12.18,38.71,25.82,1.05,1.71,2.01,3.5,2.84,5.36,1.27,2.61,2.36,5.3,3.37,8.06.38,1.53,1.75,3.19,3.23,1.79,1.19-.98.23-2.69-.61-3.72-1.83-2.49-3.57-5-5.25-7.57-.98-1.44-1.93-2.9-2.82-4.39-4.95-8.2-8.49-17.19-8.34-27.02.2-10.87,2.03-21.66,4.58-32.21,1.31-5.9,4.2-11.52,11.18-7.09,9.79,5.17,18.48,12.38,25.19,21.24,1.72,2.44,3.69,4.98,6.99,4.69,4.34-.12,9.82,1.81,12.62-2.68,6.43-8.8,14.8-15.82,23.91-21.68,7.01-4.8,12.32-3.84,13.6,5.54,2.07,13.59,4.96,27.62,1.18,41.17-1.76,7.77-4.88,15.32-9.7,21.76-2.24,3.59-6.09,6.56-7.8,10.37-.77,3.57,2.54,6.46,3.34,9.78,1.33,4.26,1.34,8.69.98,13.11.17,4.1-3.58,8.31-.69,12.03,3.89,6.01,7.69,12.07,10.95,18.46.55.95,1.21,2.47,2.49,2.04,2.52-1.68,4.38-4.35,7.02-6.02,8.7-6.75,19.69-8.46,29.85-11.94,17.79-7.07,27.57-25.37,25.83-44.11,0-5.64,4.63-4.4,7.23-.98Zm14.6,41.42v-.09c-.13-13.71-6.89-27.62-15.78-37.78-1.45-1.63-2.27-1.57-2.2.75.32,14.21-6.09,28.55-17.13,37.55-2.07,1.67-4.31,3.17-6.65,4.44-10.18,5.42-22.31,5.85-31.98,12.41-3.05,2.01-5.94,4.25-8.2,7.15-1.81,2.11-1.14,4.29,0,6.52,2.54,5.65,4.85,11.49,6.44,17.52.26.97.51,1.95.74,2.92.14.67.4,1.63.9,1.95.59.3,1.12-.01,1.67-.31,2.75-1.84,5.83-2.69,9.11-2.81,4.96-.2,9.71.73,14.65,1.12,10.12.85,19.62-1.61,27.62-8.23,12.96-10.55,20.06-26.13,20.82-43.12Zm-77.99,198.68c.72-.51,1.8-.88,1.77-1.91-.17-1.25-.58-2.55-1.13-3.73-.37-.63-.68.22-.79.59-.56,1.83-1.12,3.62-1.68,5.47-.06.21-.16.55-.03.68l.03.02c.65-.07,1.26-.81,1.84-1.12Zm-12.77-108.97c10.62-9.42,16.3-23.54,12.73-37.57-3.44-15.04-10.84-28.99-18.56-42.26-1.34-2.2-2.71-4.42-4.15-6.54-.39-.59-.89-1.16-1.51-1.43-1.5-.53-2.95.92-4.24,1.56-11.14,5.88-24.66,7.35-37,5.26-5.21-1-10.5-2.68-15.17-5.24-1.77-.99-3.37-2.23-4.83-3.64-1.47-1.46-2.9-1.14-3.89.85-16.87,28.4-34.85,71.28-5.67,97.76,6.82,6.64,20.7,17.6,30.55,17.05,8.51-3.12.29-16.12-3.66-20.36-4.06-4.61-9.22-8.27-14.41-11.42-4.42-4.02-8.93-8.68-9.18-15-.33-4.18.24-8.3,1.13-12.37,2.68-10.98,6.16-21.91,10.87-32.17,1.12-1.79,3.29-1.43,3.14.78-3.19,12.51-18.83,41.76-7.28,52.12,2.7,2.62,3.15-3.1,5.75-1.83,2.18,2.15-1.7,5.46,1.69,7.73,7.9,5.73,15.49,12.73,18.62,22.25,2.05,5.56.35,13.36-6.45,14.08-7.9.4-15.15-4.36-21.55-8.45-1.92-1.6-3.48-1.26-4.2,1.21-2.44,5.56-4.16,11.35-3.36,17.46.91,31.56,2.86,63.37,9.16,94.37,1.56,7.9,8.94,23.5,13.4,7.15,1.96-8.37.92-17.28,1.15-25.84v-.09c.07-17.6.48-35.56,5.65-52.52,2.13-7.9,9.6-19.09,16.32-7.88,3.87,7.27,4.96,15.61,6.5,23.61,2.75,15.11,3.62,30.46,4.56,45.75.76,7.5.08,15.86,4.38,22.41,5.07,6.4,10.84.53,12.13-5.43,1.93-7.76,1.49-15.86,1.91-23.79.43-18.39,1.82-36.74,2.95-55.1.32-3.7.67-7.48-.69-11.04-3.54-11.08-6.96-22.19-10.53-33.25-.22-.57-.48-1.11-.96-1.43-.98-.59-2.12.16-3.03.59-2.39,1.23-4.72,2.36-7.43,3.06-10.07,2.86-14.27-7.02-12.27-15.49,1.07-4.78,4.13-9.21,8.12-12.09,1.7-1.53,4.49-2.16,5.52-4.29.58-1.58-.6-3.3-.4-4.99.22-2.41,2.63-1.82,3.37.09,1.15,3.33,2.6,3.36,5.6,1.48,2.64-1.53,5.35-3.37,7.13-5.85,9.38-12.31-18.86-41.38-13.9-44.19,2.77-1.46,6.36,7.98,7.96,9.88,5.28,9.32,12.28,19.09,11.43,30.3-1.72,11.99-15.81,14.36-24.18,20.43-3.21,2.33-5.92,5.63-6.85,9.53-1.44,5.67.26,13.96,7.94,11.39,9.67-3.42,18.24-9.69,25.72-16.59Zm10.38,95.58c.56-.77-.04-1.88-.25-2.72-2.68-8.4-5.36-16.84-8.05-25.23-.19-.52-.55-1.61-.98-1.61h-.03c-.35.19-.44,1.25-.47,1.78-.52,8.42-1.04,16.94-1.56,25.41-.03.9-.11,2.09.88,2.38.5.15,1.08.07,1.63,0,2.22-.36,4.46-.08,6.68.22.69.06,1.61.26,2.15-.23Zm-1.14,7.93c1.72-4.56-.2-5.02-4.39-5.35-2.12-.26-3.11.72-3.95,2.41-1.51,2.66-2.33,5.61-2.36,8.67-.33,9.6-.25,19.24-1.45,28.79-.25,1.54-.58,3.03-1.05,4.49-.36,1.14-.81,2.25-1.35,3.35-2.68,5.74-8.83,9.25-14.57,5.23-.64-.41-1.27-.96-2.01-1.14-1.03-.22-1.54.92-1.96,1.74-4.68,9.77-9.67,19.45-13.93,29.39l-.04.07c-1.71,3.51-4.99,10.15-3.42,14.07,2.59,5.35,9.77,7.77,15.23,5.48,3.56-1.64,5.66-5.61,6.95-9.21,5.31-16.24,10.53-32.51,15.74-48.79,4.18-13.07,8.36-26.15,12.56-39.22Zm-6.21-259.57c1.5-6.54,2.37-13.21,1.56-19.93-.9-7.16-1.65-14.37-2.95-21.46-.43-2.2-1.36-3.59-3.17-1.19-3.04,3.95-5.54,8.28-7.46,12.92-2.18,5.19-3.83,10.59-4.38,16.24-.36,1.81.32,5.96-2.01,6.4-1.89-.08-1.9-2.88-1.84-4.36.56-11.11,4.79-21.51,10.97-30.61.3-.44.89-1.34.75-1.61v-.02c-.33-.16-1.33.54-1.79.84-7.85,5.31-15.11,11.41-20.82,19.11-1.32,1.72-2.54,3.65-4.42,4.79-3.03,1.84-6.69.84-10.02.74-2.64-.34-5.85.9-7.9-1.34-7.2-10-15.76-18.81-26.63-24.66-.78-.4-1.81-.81-1.56.37,3.68,7.61,7.11,15.39,8.37,23.89.22,2.03.77,4.24.28,6.25-.46,1.7-2.33,1.71-2.96.1-.67-1.69-.54-3.66-.89-5.44-1.28-8.06-4.07-15.71-7.84-22.9-1.61-3.02-2.34.24-2.75,1.9-.99,3.96-1.81,7.98-2.49,12.01-1.67,10.5-3.23,21.65-.16,32,1.18,4.24,3.26,8.29,5.47,12.08,6.8,11.9,15.87,22.26,23.11,33.88.84,1.29,1.68,2.57,2.6,3.8.69.93,1.53,2.01,2.21,2.26,1.35.52,1.94-2.53,2.85-3.23,1.5-1.8,4.09-2.55,6.37-1.95,2.59.54,4.23,2.93,5.02,5.34.57,1.39,1.49.9,2.4-.17,1.61-1.84,3.24-3.71,4.86-5.56,13.12-15.69,31.08-29.38,35.23-50.48Zm-4.43,195.93c.19-8.22-.03-16.5-.37-24.72-.12-2.05-.3-4.09-.47-6.13-.07-.86-.26-2.25-1.29-2.07-.59.1-1.03.45-1.54.79-1.48,1.08-2.93,2.22-4.36,3.35-1.68,1.21-1.91,2.91-1.21,4.78,2.67,8.53,5.29,17.08,7.98,25.58.17.48.5,1.47.84,1.54h.02c.15-.03.25-.37.3-.9.06-.66.08-1.47.1-2.21Zm-10.37-134.86c2.28-5.3,2.53-15.35-.42-20.39-1.8-3.24-4.67-1.24-6.89.33-5.08,4.64-9.38,10.13-13.96,15.23-3.24,3.62-7.27,7.7-12.45,7.7-10.89-.42-16.93-14.99-22.85-22.61-.76-1.05-1.61-2.16-2.75-2.78-3.03-1.54-4.23,1.36-4.37,4.07-.95,8.86.68,19.42,9.08,24.2,7.25,4.03,15.62,5.96,23.82,5.83h.09c8.8.16,26.77-2.81,30.69-11.58Zm-22.5,197.68c.78-1.67.82-3.13-1.33-3.5-1.67-.28-3.68-.65-5.26,0-1.44.62-2.21,2.19-3.06,3.42-1.21,1.78-2.39,3.58-3.58,5.39-1.6,2.48-3.32,4.78-4.78,7.31-.75,1.47-.78,3.18-.74,4.81-.04,4.22.13,8.71-.13,12.85-.38,4.45-.85,9.09-2.78,13.19-.13.27-.27.54-.4.81-1.58,3.13-4.83,5.99-8.51,4.7-2.05-.65-3.57-2.28-4.83-3.96-.65-.74-1.13-2.1-2.21-2.18-.67.08-1.05.67-1.44,1.19-1.34,2.09-2.65,4.07-4.08,6.1-3.27,5.02-6.53,9.89-9.85,14.84-2.73,4.09-5.79,8.21-7.75,12.71-.66,1.35-1.11,2.83-.87,4.36,1.28,7.27,11.41,11.22,17.36,7.12l.07-.04c1.41-.97,2.58-2.47,3.51-4.14,5.69-10.81,10.76-22.04,16.03-33.09,1.36-2.62,2.62-5.31,3.89-7.99.57-1.21,1.14-2.41,1.72-3.61,1.4-3.1,3.09-6.16,4.43-9.29,4.18-8.64,8.37-17.25,12.44-25.95.7-1.74,1.43-3.34,2.14-5.07Zm-45.01-210.38c.34-4.89-.87-9.67-2.59-14.23-6.68-18.75-19.11-30.62-38.24-36.11-7.78-2.29-15.83-3.11-23.91-3.11-14.1-.01-28.18,2.62-42.23.74-22.05-2.94-40.33-19.45-49.15-39.41-.43-.86-1-2.27-2.16-1.75-.61.29-.95.8-1.39,1.33-.91,1.18-1.69,2.46-2.44,3.75-3.98,6.91-6.82,14.43-11,21.23-3.13,4.79-7.17,8.91-11.27,12.88-1.19,1.09-1.86,2.5-.6,3.74,1.19,1.21,2.6,2.2,3.95,3.22,4.61,3.34,9.91,5.56,15.19,7.63,12.93,5.21,26.66,8.36,40.7,8.13,19.49-.52,38.86-4.56,58.41-3.39,21.44.94,39.02,11.32,53.8,26.34,3.7,3.72,7.23,7.69,10.82,11.53.28.3.6.65.88.88.32.27.58.4.76.33h.03c.18-.09.27-.36.33-.78.06-.92.07-1.98.09-2.94Zm-.33,125.59c.4-1.27.23-1.67-.46-2.15-.12-.08-.28-.14-.39-.03-.1.11-.13.32-.15.49-.06,1.22-.36,2.71.05,4h.03c.43-.55.65-1.58.93-2.31Z"/><path class="cls-2" d="m382.2,136.4v.09c-.76,16.98-7.86,32.56-20.82,43.12-8,6.62-17.5,9.07-27.62,8.23-4.94-.39-9.69-1.31-14.65-1.12-3.28.11-6.36.97-9.11,2.81-.56.29-1.09.61-1.67.31-.5-.32-.75-1.28-.9-1.95-.23-.97-.48-1.95-.74-2.92-1.59-6.03-3.9-11.87-6.44-17.52-1.13-2.23-1.8-4.41,0-6.52,2.26-2.9,5.15-5.14,8.2-7.15,9.67-6.56,21.8-6.99,31.98-12.41,2.34-1.27,4.58-2.77,6.65-4.44,11.04-9,17.44-23.34,17.13-37.55-.07-2.32.74-2.38,2.2-.75,8.9,10.16,15.65,24.07,15.79,37.78Z"/><path class="cls-2" d="m304.16,188.65c3.57,14.03-2.11,28.15-12.73,37.57-7.48,6.9-16.06,13.18-25.72,16.59-7.69,2.56-9.38-5.72-7.94-11.39.93-3.9,3.64-7.2,6.85-9.53,8.37-6.06,22.46-8.44,24.18-20.43.85-11.21-6.15-20.97-11.43-30.3-1.61-1.9-5.19-11.34-7.96-9.88-4.96,2.81,23.28,31.88,13.9,44.19-1.78,2.48-4.49,4.33-7.13,5.85-3.01,1.88-4.45,1.85-5.6-1.48-.74-1.91-3.15-2.5-3.37-.09-.19,1.69.98,3.41.4,4.99-1.02,2.13-3.82,2.76-5.52,4.29-3.99,2.88-7.05,7.31-8.12,12.09-2,8.47,2.2,18.35,12.27,15.49,2.7-.7,5.04-1.83,7.43-3.06.91-.43,2.05-1.18,3.03-.59.48.32.74.86.96,1.43,3.57,11.06,6.99,22.17,10.53,33.25,1.36,3.56,1.01,7.33.69,11.04-1.13,18.35-2.51,36.71-2.95,55.1-.42,7.94.02,16.03-1.91,23.79-1.29,5.96-7.06,11.83-12.13,5.43-4.29-6.56-3.62-14.91-4.38-22.41-.94-15.29-1.81-30.65-4.56-45.75-1.54-7.99-2.63-16.34-6.5-23.61-6.71-11.22-14.19-.03-16.32,7.88-5.17,16.97-5.57,34.92-5.65,52.52v.09c-.24,8.56.81,17.46-1.15,25.84-4.46,16.35-11.84.75-13.4-7.15-6.3-31-8.25-62.81-9.16-94.37-.8-6.11.92-11.91,3.36-17.46.71-2.46,2.28-2.8,4.2-1.21,6.4,4.09,13.66,8.85,21.55,8.45,6.8-.72,8.51-8.51,6.45-14.08-3.12-9.52-10.71-16.52-18.62-22.25-3.39-2.27.49-5.58-1.69-7.73-2.59-1.27-3.05,4.45-5.75,1.83-11.55-10.36,4.09-39.61,7.28-52.12.15-2.21-2.02-2.56-3.14-.78-4.71,10.26-8.2,21.19-10.87,32.17-.89,4.07-1.47,8.18-1.13,12.37.25,6.33,4.76,10.98,9.18,15,5.19,3.15,10.35,6.81,14.41,11.42,3.95,4.24,12.17,17.24,3.66,20.36-9.84.55-23.72-10.41-30.55-17.05-29.18-26.48-11.2-69.36,5.67-97.76.99-2,2.42-2.31,3.89-.85,1.47,1.41,3.06,2.66,4.83,3.64,4.67,2.56,9.96,4.25,15.17,5.24,12.33,2.09,25.86.62,37-5.26,1.29-.64,2.75-2.08,4.24-1.56.62.27,1.12.85,1.51,1.43,1.44,2.12,2.81,4.34,4.15,6.54,7.72,13.27,15.12,27.22,18.56,42.26Z"/><path class="cls-3" d="m296.28,324.37c4.19.33,6.11.79,4.39,5.35-4.2,13.07-8.37,26.15-12.56,39.22l-.64-.2c.47-1.46.8-2.95,1.05-4.49,1.2-9.55,1.12-19.19,1.45-28.79.03-3.06.85-6.01,2.36-8.67.83-1.7,1.83-2.67,3.95-2.41Z"/><path class="cls-2" d="m296.02,50.23c.81,6.72-.06,13.39-1.56,19.93-4.16,21.1-22.12,34.78-35.23,50.48-1.62,1.85-3.25,3.72-4.86,5.56-.91,1.07-1.83,1.56-2.4.17-.78-2.41-2.43-4.8-5.02-5.34-2.29-.59-4.87.15-6.37,1.95-.91.71-1.5,3.75-2.85,3.23-.68-.24-1.51-1.33-2.21-2.26-.92-1.23-1.76-2.51-2.6-3.8-7.24-11.62-16.3-21.98-23.11-33.88-2.21-3.8-4.29-7.84-5.47-12.08-3.07-10.35-1.51-21.5.16-32,.68-4.03,1.51-8.05,2.49-12.01.41-1.67,1.14-4.92,2.75-1.9,3.77,7.18,6.56,14.83,7.84,22.9.35,1.79.22,3.75.89,5.44.64,1.61,2.51,1.6,2.96-.1.49-2.01-.06-4.22-.28-6.25-1.25-8.51-4.69-16.28-8.37-23.89-.25-1.18.78-.77,1.56-.37,10.87,5.86,19.43,14.67,26.63,24.66,2.05,2.23,5.25.99,7.9,1.34,3.33.1,6.98,1.1,10.02-.74,1.88-1.14,3.1-3.07,4.42-4.79,5.71-7.7,12.97-13.8,20.82-19.11.46-.3,1.45-1,1.77-.84v.02c.15.27-.43,1.17-.74,1.61-6.17,9.11-10.4,19.51-10.97,30.61-.06,1.48-.06,4.28,1.84,4.36,2.33-.44,1.65-4.58,2.01-6.4.55-5.64,2.2-11.05,4.38-16.24,1.92-4.64,4.42-8.97,7.46-12.92,1.81-2.4,2.74-1.01,3.17,1.19,1.29,7.09,2.05,14.3,2.95,21.46Zm-25,32.57c.02-2.47-1.81-4.33-4.31-4.35-2.13-.02-3.99,1.94-4,4.22,0,2.38,1.78,4.17,4.16,4.18,2.32,0,4.12-1.75,4.15-4.05Zm-41.44,2.91c2.39.02,4.27-1.86,4.26-4.24,0-2.57-1.77-4.14-4.69-4.15-1.98,0-3.77,2-3.76,4.19,0,2.32,1.87,4.19,4.19,4.2Z"/><path class="cls-2" d="m289.66,241.36c.34,8.23.56,16.5.37,24.72-.02.74-.04,1.56-.1,2.21-.06.54-.15.87-.3.9h-.02c-.34-.07-.67-1.06-.84-1.54-2.69-8.5-5.32-17.05-7.98-25.58-.7-1.87-.47-3.58,1.21-4.78,1.44-1.14,2.88-2.27,4.36-3.35.51-.34.95-.68,1.54-.79,1.03-.18,1.22,1.21,1.29,2.07.18,2.04.35,4.09.47,6.13Z"/><path class="cls-3" d="m287.48,368.74l.64.2c-5.2,16.28-10.42,32.55-15.74,48.79-1.29,3.6-3.38,7.57-6.95,9.21-5.46,2.29-12.64-.13-15.23-5.48-1.57-3.92,1.71-10.56,3.42-14.07l.04-.07c4.25-9.94,9.25-19.62,13.93-29.39.42-.82.93-1.96,1.96-1.74.74.17,1.37.72,2.01,1.14,5.74,4.02,11.89.51,14.57-5.23.54-1.1.99-2.22,1.35-3.35Z"/><path class="cls-3" d="m279.25,110.83c2.95,5.03,2.69,15.08.42,20.39-3.92,8.76-21.89,11.74-30.69,11.58h-.09c-8.2.14-16.57-1.79-23.82-5.83-8.4-4.78-10.03-15.34-9.08-24.2.14-2.71,1.34-5.6,4.37-4.07,1.14.61,1.99,1.73,2.75,2.78,5.93,7.62,11.97,22.19,22.85,22.61,5.18,0,9.21-4.08,12.45-7.7,4.58-5.1,8.89-10.59,13.96-15.23,2.22-1.57,5.09-3.57,6.89-.33Z"/><path class="cls-1" d="m266.71,78.44c2.5.03,4.34,1.88,4.31,4.35-.03,2.29-1.83,4.05-4.15,4.05-2.38,0-4.17-1.8-4.16-4.18,0-2.28,1.87-4.25,4-4.22Z"/><path class="cls-3" d="m255.84,325.41c2.14.37,2.11,1.83,1.33,3.5-.71,1.73-1.44,3.32-2.14,5.07-4.07,8.7-8.26,17.3-12.44,25.95-1.34,3.13-3.03,6.19-4.43,9.29-.58,1.19-1.15,2.4-1.72,3.61l-.92-.43c1.93-4.09,2.4-8.73,2.78-13.19.27-4.14.09-8.63.13-12.85-.03-1.62,0-3.34.74-4.81,1.46-2.53,3.18-4.83,4.78-7.31,1.19-1.81,2.37-3.61,3.58-5.39.85-1.23,1.62-2.81,3.06-3.42,1.59-.66,3.59-.29,5.26,0Z"/><path class="cls-3" d="m235.51,372.38l.92.43c-1.27,2.68-2.52,5.37-3.89,7.99-5.28,11.05-10.34,22.28-16.03,33.09-.94,1.67-2.1,3.17-3.51,4.14l-.07.04c-5.96,4.1-16.08.15-17.36-7.12-.24-1.53.21-3.01.87-4.36,1.96-4.5,5.02-8.63,7.75-12.71,3.33-4.95,6.59-9.82,9.85-14.84,1.43-2.02,2.74-4.01,4.08-6.1.39-.52.77-1.11,1.44-1.19,1.08.08,1.56,1.45,2.21,2.18,1.26,1.67,2.78,3.31,4.83,3.96,3.68,1.28,6.94-1.57,8.51-4.7.14-.27.28-.54.4-.81Z"/><path class="cls-1" d="m233.84,81.46c0,2.39-1.88,4.26-4.26,4.24-2.32-.01-4.18-1.88-4.19-4.2,0-2.19,1.79-4.19,3.76-4.19,2.92,0,4.69,1.57,4.69,4.15Z"/><path class="cls-3" d="m209.56,104.3c1.72,4.56,2.94,9.33,2.59,14.23-.02.96-.04,2.01-.09,2.94-.05.42-.15.69-.33.77h-.03c-.18.07-.44-.05-.76-.32-.28-.23-.6-.58-.88-.88-3.58-3.84-7.11-7.81-10.82-11.53-14.78-15.02-32.36-25.39-53.8-26.34-19.56-1.18-38.92,2.87-58.41,3.39-14.04.23-27.77-2.93-40.7-8.13-5.27-2.07-10.58-4.29-15.19-7.63-1.35-1.01-2.76-2-3.95-3.22-1.26-1.24-.59-2.64.6-3.74,4.1-3.97,8.14-8.09,11.27-12.88,4.18-6.8,7.02-14.32,11-21.23.75-1.29,1.54-2.57,2.44-3.75.44-.52.78-1.03,1.39-1.33,1.15-.52,1.73.89,2.16,1.75,8.82,19.96,27.1,36.47,49.15,39.41,14.05,1.88,28.13-.75,42.23-.74,8.08,0,16.13.82,23.91,3.11,19.13,5.49,31.56,17.36,38.24,36.11Z"/><path class="cls-2" d="m211.35,241.96c.69.48.86.89.46,2.15-.28.73-.5,1.75-.93,2.31h-.03c-.4-1.29-.11-2.79-.05-4.01.02-.17.05-.38.15-.49.11-.11.27-.05.39.03Z"/></svg>