<?xml version="1.0" encoding="utf-8"?>
<!-- Generator: Adobe Illustrator 28.3.0, SVG Export Plug-In . SVG Version: 6.00 Build 0)  -->
<svg version="1.1" id="Lager_1" xmlns="http://www.w3.org/2000/svg" xmlns:xlink="http://www.w3.org/1999/xlink" x="0px" y="0px"
	 viewBox="0 0 1133.9 1133.9" style="enable-background:new 0 0 1133.9 1133.9;" xml:space="preserve">
<style type="text/css">
	.st0{fill:#112131;}
	.st1{fill:#FCFAE8;}
	.st2{fill:#F3936A;}
	.st3{fill:none;stroke:#F3936A;stroke-miterlimit:10;}
	.st4{fill:#112131;stroke:#112131;stroke-width:0.5;stroke-miterlimit:10;}
	.st5{fill:#122231;}
</style>
<g>
	<g>
		<g id="XMLID_00000132789283720897470680000015220134395585033659_">
			<g>
				<path class="st0" d="M896.5,306.7c28.7,30.7,47.9,73.9,37.3,116.4c-10.4,48.9-51.3,97.2-104.6,94.9c-8.5,0.3-17.4-1.5-26.2-2.4
					l0.7-6.5c6,0.6,12.1,1.5,18.2,1.9c22.3,1.9,43.2-3.5,60.8-18.1c28.5-23.2,44.2-57.5,45.8-95l0-0.2
					c-0.3-30.2-15.2-60.8-34.8-83.2c-3.2-3.6-5-3.5-4.8,1.6c0.7,31.3-13.4,62.9-37.7,82.7c-4.6,3.7-9.5,7-14.6,9.8
					c-22.4,11.9-49.1,12.9-70.5,27.3c-5,3.3-9.9,6.9-14.1,11.2l-5.8-4.8c3.8-3.4,7.2-7.4,11.5-10.1c19.2-14.9,43.4-18.6,65.7-26.3
					c39.2-15.6,60.7-55.9,56.9-97.2C880.6,296.4,890.8,299.1,896.5,306.7z"/>
				<path class="st1" d="M928.7,397.7l0,0.2c-1.7,37.4-17.3,71.7-45.8,95c-17.6,14.6-38.6,20-60.8,18.1c-6.2-0.5-12.2-1.4-18.2-1.9
					c-4.7-0.4-9.3-0.7-14-0.5c-7.2,0.3-14,2.1-20,6.2c-1.2,0.6-2.4,1.3-3.7,0.7c-1.1-0.7-1.7-2.8-2-4.3c-0.5-2.1-1.1-4.3-1.6-6.4
					c-1.8-6.6-3.9-13.2-6.3-19.6c-2.4-6.4-5.1-12.8-7.9-19c-2.5-4.9-4-9.7,0-14.3c1.2-1.6,2.6-3.1,4-4.5c4.2-4.3,9-7.9,14.1-11.2
					c21.3-14.4,48-15.4,70.5-27.3c5.2-2.8,10.1-6.1,14.6-9.8c24.3-19.8,38.4-51.4,37.7-82.7c-0.2-5.1,1.6-5.2,4.8-1.6
					C913.5,336.9,928.4,367.5,928.7,397.7z"/>
				<path class="st0" d="M803.8,509.1l-0.7,6.5c-8.8-0.8-17.4-0.8-25.5,3c-6,3-11.3,5.2-10.4,13c0.2,11.6-1.9,23.2-6.3,34
					c-5.5,13.5-15.3,25.3-25.7,35.5c-6.9,6.6-2.2,16.5-2.5,24.7c2,28.5,0.5,57,0.5,85.5c-0.1,0.2-0.1,0.3-0.1,0.5
					c-1.3,7.8-1.7,15.6-1.7,23.5c-0.5,1.3-0.8,2.6-0.7,4c0.1,0.7,0.2,1.4,0.3,2c-0.6,0.7-0.8,2.7-0.8,3.7c-1.2,18.5-2.3,37.3-3.4,56
					c-0.1,2-0.3,4.6,1.9,5.3c1.1,0.3,2.4,0.2,3.6,0c2-0.3,4-0.4,6-0.4l-0.2,5.9c-3.7,0-5.6,2.1-7.2,5.4c-3.3,5.9-5.1,12.3-5.2,19.1
					c-0.7,21.2-0.6,42.4-3.2,63.4c-0.6,3.4-1.3,6.7-2.3,9.9c-0.8,2.5-1.8,5-3,7.4c-4.5,9.7-13.5,16.4-23.1,15.1l0.9-7.1
					c8.2,1.1,15.5-8.4,17.6-18c4.3-17.1,3.3-34.9,4.2-52.4c1-40.5,4-80.9,6.5-121.3c0.7-8.2,1.5-16.5-1.5-24.3
					c-7.8-24.4-15.3-48.9-23.2-73.2c-0.5-1.3-1.1-2.4-2.1-3.1c-2.2-1.3-4.7,0.4-6.7,1.3c-5.3,2.7-10.4,5.2-16.3,6.7
					c-22.2,6.3-31.4-15.4-27-34.1c2.4-10.5,9.1-20.3,17.9-26.6c3.7-3.4,9.9-4.8,12.2-9.4c1.3-3.5-1.3-7.3-0.9-11
					c0.5-5.3,5.8-4,7.4,0.2c2.5,7.3,5.7,7.4,12.3,3.2c5.8-3.3,11.8-7.4,15.7-12.9c20.7-27.1-41.5-91.2-30.6-97.3
					c6.1-3.2,14,17.6,17.5,21.8c11.6,20.5,27.1,42,25.2,66.7c-3.8,26.4-34.8,31.6-53.3,45c-7.1,5.1-13,12.4-15.1,21
					c-3.1,12.5,0.6,30.8,17.5,25.1c21.3-7.5,40.2-21.3,56.7-36.5c23.4-20.7,35.9-51.8,28-82.7c-1.9-8.3-4.3-16.4-7.2-24.4l6.5-3.3
					c2.4,6.4,4.6,13,6.3,19.6c0.6,2.1,1.1,4.3,1.6,6.4c0.3,1.5,0.9,3.6,2,4.3c1.3,0.7,2.5-0.1,3.7-0.7c6.1-4,12.8-5.9,20-6.2
					C794.5,508.3,799.1,508.6,803.8,509.1z M725.7,683.6c0.4-17.4-0.1-34.9-0.8-52.2c-0.3-4.3-0.7-8.6-1-13
					c-0.2-1.8-0.6-4.8-2.8-4.4c-1.3,0.2-2.3,1-3.4,1.7c-3.3,2.3-6.5,4.7-9.6,7.1c-3.7,2.6-4.2,6.2-2.7,10.1
					c5.9,18,11.6,36.1,17.6,54c0.4,1,1.1,3.1,1.9,3.3h0.1c0.3-0.1,0.5-0.8,0.7-1.9C725.6,686.9,725.6,685.2,725.7,683.6z"/>
				<path class="st0" d="M758.5,813.8c0.2,2.3-0.2,4.8-0.9,8c-0.1,0.3-0.1,0.6-0.1,0.8c-0.5,0.2-0.8,1.2-1,1.8
					c-1.2,4-2.5,7.9-3.7,12c0,0.1-0.1,0.2-0.1,0.2c-0.5,1-0.8,2-0.9,3.1c-0.6,1.1-0.9,2.3-1,3.5c-0.6,1.8-1.2,3.5-1.7,5.3
					c-0.4,1.3-0.7,2.7-1,4c-0.2,0.6-1.4,4.1-1,3.6c-0.4,0.7-0.6,1.4-0.8,2.2v0c-0.3,0.8-0.7,1.8-1,3
					c-12.9,40.1-25.3,80.5-38.4,120.6c-6,16.4-8.3,34.2-15.9,50c-8.5,17.5-32.9,24.9-48.5,12c-16.5-12.4-16.9-26.2-8.6-43.5
					c9.1-19.4,18.7-38.6,28-57.9l6.4,3.1c-7.9,16.2-15.9,32.3-22.9,48.8l-0.1,0.2c-3.7,7.7-11,22.4-7.5,31
					c5.7,11.8,21.5,17.1,33.6,12.1c7.8-3.6,12.5-12.4,15.3-20.3c11.7-35.8,23.2-71.6,34.7-107.5c9.2-28.8,18.4-57.6,27.7-86.4
					c3.8-10-0.5-11-9.7-11.8c-0.5-0.1-1-0.1-1.4-0.1l0.2-5.9c2.9,0.1,5.8,0.5,8.7,0.8c0.1,0,0.1,0,0.2,0c1,0.6,2,1,3,1.3
					c0,0,0.1,0,0.1,0.1c0.6,0.3,1.1,0.5,1.7,0.8c0,0,0,0,0.1,0c1.2,0.9,2.5,1.6,3.9,2.2c0.4,0.2,1.7,1.3,1.7,1.3
					C758.3,812.7,758.5,813.8,758.5,813.8z"/>
				<path class="st1" d="M756.8,512.8c7.9,30.9-4.7,62-28,82.7c-16.5,15.2-35.4,29-56.7,36.5c-16.9,5.7-20.7-12.6-17.5-25.1
					c2.1-8.6,8-15.8,15.1-21c18.4-13.4,49.5-18.6,53.3-45c1.9-24.7-13.6-46.2-25.2-66.7c-3.5-4.2-11.4-25-17.5-21.8
					c-10.9,6.2,51.3,70.2,30.6,97.3c-3.9,5.5-9.9,9.5-15.7,12.9c-6.6,4.2-9.8,4.1-12.3-3.2c-1.6-4.2-6.9-5.5-7.4-0.2
					c-0.4,3.7,2.2,7.5,0.9,11c-2.3,4.7-8.4,6.1-12.2,9.4c-8.8,6.3-15.5,16.1-17.9,26.6c-4.4,18.7,4.9,40.4,27,34.1
					c6-1.5,11.1-4,16.3-6.7c2-1,4.5-2.6,6.7-1.3c1.1,0.7,1.6,1.9,2.1,3.1c7.9,24.4,15.4,48.8,23.2,73.2c3,7.8,2.2,16.1,1.5,24.3
					c-2.5,40.4-5.5,80.8-6.5,121.3c-0.9,17.5,0.1,35.3-4.2,52.4c-2.1,9.6-9.4,19.1-17.6,18c-3-0.4-6.1-2.2-9.1-6
					c-9.5-14.4-7.9-32.8-9.6-49.4c-2.1-33.7-4-67.5-10.1-100.8c-3.4-17.6-5.8-36-14.3-52c-14.8-24.7-31.2-0.1-35.9,17.4
					c-11.4,37.4-12.3,76.9-12.5,115.7v0.2c-0.5,18.9,1.8,38.5-2.5,56.9c-9.8,36-26.1,1.7-29.5-15.7
					c-13.9-68.3-18.2-138.3-20.2-207.9c-1.8-13.5,2-26.2,7.4-38.5c1.1-3.8,3.1-5.3,5.7-4.7c0,0,0.1,0.1,0.1,0.1
					c0.3,0.2,0.7,0.2,1,0.3c0.9,0.4,1.8,1,2.5,1.6c14.1,9,30.1,19.5,47.5,18.6c15-1.6,18.7-18.8,14.2-31c-6.9-21-23.6-36.4-41-49
					c-7.5-5,1.1-12.3-3.7-17c-5.7-2.8-6.7,9.8-12.7,4c-25.4-22.8,9-87.2,16-114.8c0.3-4.9-4.5-5.6-6.9-1.7
					c-10.4,22.6-18.1,46.7-24,70.9c-2,9-3.2,18-2.5,27.2c0.6,13.9,10.5,24.2,20.2,33.1c11.4,6.9,22.8,15,31.8,25.2
					c8.7,9.4,26.8,38,8,44.8c-21.7,1.2-52.3-22.9-67.3-37.6C483.2,556.4,522.8,462,560,399.4c0.2-0.3,0.3-0.6,0.5-0.9
					c2.1-3.6,5.1-3.9,8.1-1c3.2,3.1,6.7,5.8,10.6,8c2.6,1.4,5.2,2.7,7.9,3.9c8.1,3.5,16.9,6,25.5,7.7c27.2,4.6,56.9,1.4,81.5-11.6
					c2.9-1.4,6.1-4.6,9.4-3.4c1.4,0.6,2.5,1.9,3.3,3.1c3.2,4.7,6.2,9.6,9.1,14.4c12.8,21.9,25.1,44.7,33.7,68.7
					C752.5,496.3,754.9,504.5,756.8,512.8z"/>
				<path class="st0" d="M756.1,485.1l-6.5,3.3c-8.6-24-20.9-46.8-33.7-68.7c-2.9-4.9-6-9.7-9.1-14.4c-0.9-1.3-2-2.5-3.3-3.1
					c-3.3-1.2-6.5,2-9.4,3.4c-24.5,13-54.3,16.2-81.5,11.6c-8.6-1.6-17.3-4.2-25.5-7.7l4.3-6.2c13.8,5.9,28.8,8.7,43.6,8.5h0.2
					c19.4,0.4,59-6.2,67.6-25.5c5-11.7,5.6-33.8-0.9-44.9c-4-7.1-10.3-2.7-15.2,0.7l-5.9-4.6c7.9-8.4,15.8-16.9,23.2-25.7l5.6,4.2
					c-1.8,2.4-3.5,4.8-4.7,7.4c-1.7,7.8,5.6,14.2,7.3,21.5c2.9,9.4,3,19.1,2.2,28.9c0.4,9-7.9,18.3-1.5,26.5
					c8.6,13.2,16.9,26.6,24.1,40.6c1.2,2.1,2.7,5.4,5.5,4.5c1.4-0.9,2.7-2,3.9-3.1l5.8,4.8c-1.4,1.4-2.7,2.9-4,4.5
					c-4,4.6-2.5,9.4,0,14.3C751,472.3,753.7,478.6,756.1,485.1z"/>
				<path class="st2" d="M739.4,811.7c9.2,0.7,13.5,1.7,9.7,11.8c-9.3,28.8-18.5,57.6-27.7,86.4l-1.4-0.5c1-3.2,1.8-6.5,2.3-9.9
					c2.6-21,2.5-42.3,3.2-63.4c0.1-6.7,1.9-13.2,5.2-19.1c1.6-3.3,3.5-5.4,7.2-5.4C738.5,811.6,738.9,811.7,739.4,811.7z"/>
				<path class="st0" d="M740.9,162c4.6,29.9,10.9,60.8,2.6,90.7c-3.9,17.1-10.7,33.7-21.4,47.9c-3.4,5.4-8.5,10.2-12.5,15.4
					l-5.6-4.2c14.7-17.7,26.8-36.8,31.4-60.1c3.3-14.4,5.2-29.1,3.4-43.9c-2-15.8-3.6-31.6-6.5-47.3c-0.9-4.8-3-7.9-7-2.6
					c-6.7,8.7-12.2,18.2-16.4,28.4c-4.8,11.4-8.4,23.3-9.6,35.8c-0.8,4,0.7,13.1-4.4,14.1c-4.2-0.2-4.2-6.3-4-9.6
					c1.2-24.4,10.6-47.4,24.1-67.4c0.7-1,2-3,1.7-3.5l0-0.1c-0.3-0.2-0.9,0.1-1.6,0.4l-4.2-6.2C726.4,139.3,738.1,141.4,740.9,162z"
					/>
				<path class="st1" d="M738.9,207.9c1.8,14.8-0.1,29.5-3.4,43.9c-4.6,23.2-16.8,42.4-31.4,60.1c-7.3,8.8-15.2,17.3-23.2,25.7
					c-3.9,4.2-7.9,8.4-11.8,12.6c-3.9,4.2-7.6,8.5-11.3,12.8c-3.6,4.1-7.1,8.2-10.7,12.2c-2,2.4-4,3.4-5.3,0.4
					c-1.7-5.3-5.4-10.6-11-11.7c-5.1-1.3-10.7,0.3-14.1,4.3c-2,1.6-3.3,8.3-6.3,7.1c-1.5-0.5-3.3-2.9-4.9-5c-2-2.7-3.9-5.5-5.7-8.4
					c-9.9-15.9-21.4-30.7-32.2-46c-6.6-9.3-13-18.7-18.7-28.6c-4.9-8.4-9.4-17.3-12-26.6c-6.8-22.8-3.3-47.4,0.4-70.5
					c1.5-8.9,3.3-17.7,5.5-26.5c0.9-3.6,2.5-10.8,6.1-4.2c8.3,15.8,14.4,32.7,17.3,50.4c0.8,3.9,0.5,8.3,2,12
					c1.4,3.5,5.5,3.5,6.5-0.2c1.1-4.4-0.1-9.3-0.6-13.8c-2.8-18.7-10.3-35.9-18.4-52.6c-0.6-2.6,1.7-1.7,3.4-0.8
					c20.9,11.3,38,27.5,52.5,46.2c2.1,2.7,4.1,5.4,6.1,8.1c4.5,4.9,11.6,2.2,17.4,2.9c7.3,0.2,15.4,2.4,22.1-1.6
					c4.2-2.5,6.8-6.8,9.7-10.6c12.6-17,28.6-30.4,45.9-42.1c0.6-0.4,1.5-1,2.3-1.5c0.7-0.4,1.3-0.6,1.6-0.4l0,0.1
					c0.3,0.6-1,2.6-1.7,3.5c-13.6,20.1-22.9,43-24.1,67.4c-0.1,3.3-0.1,9.4,4,9.6c5.1-1,3.6-10.1,4.4-14.1
					c1.2-12.4,4.9-24.3,9.6-35.8c4.3-10.2,9.8-19.7,16.4-28.4c4-5.3,6-2.2,7,2.6C735.2,176.2,736.9,192.1,738.9,207.9z M683.8,279.6
					c0.1-5.4-4-9.5-9.5-9.6c-4.7-0.1-8.8,4.3-8.8,9.3c0,5.2,3.9,9.2,9.2,9.2C679.8,288.5,683.7,284.7,683.8,279.6z M601.9,276.7
					c0-5.7-3.9-9.1-10.3-9.1c-4.4,0-8.3,4.4-8.3,9.2c0,5.1,4.1,9.2,9.2,9.3C597.8,286.1,601.9,281.9,601.9,276.7z"/>
				<path class="st1" d="M724.9,631.3c0.8,17.4,1.2,34.9,0.8,52.2c-0.1,1.6-0.1,3.3-0.2,4.7c-0.1,1.1-0.3,1.9-0.7,1.9h-0.1
					c-0.8-0.2-1.5-2.2-1.9-3.3c-5.9-17.9-11.7-36-17.6-54c-1.5-3.9-1.1-7.5,2.7-10.1c3.1-2.4,6.3-4.8,9.6-7.1
					c1.1-0.7,2.1-1.5,3.4-1.7c2.3-0.4,2.7,2.6,2.8,4.4C724.2,622.7,724.6,627,724.9,631.3z"/>
				<path class="st2" d="M720.1,909.4l1.4,0.5c-11.4,35.9-23,71.7-34.7,107.5c-2.8,7.9-7.4,16.7-15.3,20.3
					c-12,5.1-27.8-0.3-33.6-12.1c-3.4-8.6,3.8-23.3,7.5-31l0.1-0.2c7-16.5,15-32.6,22.9-48.8c2.6-5.3,5.2-10.6,7.7-15.9
					c0.1-0.1,0.1-0.2,0.2-0.3c0.9-1.8,2-4,4.2-3.5c1.6,0.4,3,1.6,4.4,2.5c3,2.1,6,3.2,9,3.6c9.6,1.3,18.6-5.5,23.1-15.1
					C718.3,914.4,719.3,911.9,720.1,909.4z"/>
				<path class="st0" d="M710.9,149.8l4.2,6.2c-0.8,0.4-1.8,1.1-2.3,1.5c-17.3,11.7-33.3,25.1-45.9,42.1c-2.9,3.8-5.6,8-9.7,10.6
					c-6.7,4-14.7,1.8-22.1,1.6c-5.8-0.8-12.9,2-17.4-2.9c-2-2.8-4-5.5-6.1-8.1l5.6-4.7c3.3,4.3,7.3,8,13.3,7.5
					c9.6-0.3,21.6,4,27.8-5.9C672.4,178.2,690.9,162.7,710.9,149.8z"/>
				<path class="st2" d="M701.9,341.4c6.5,11.1,5.9,33.2,0.9,44.9c-8.7,19.3-48.2,25.9-67.6,25.5H635c-14.8,0.3-29.8-2.5-43.6-8.5
					c-3-1.3-6-2.8-8.9-4.4c-18.5-10.5-22.1-33.8-20-53.3c0.3-6,2.9-12.3,9.6-9c2.5,1.4,4.4,3.8,6.1,6.1c6.5,8.4,13.1,20.6,21.1,30.9
					c7.9,10.2,17.3,18.5,29.3,18.9c11.4,0,20.3-9,27.4-17c6.3-7,12.4-14.4,18.8-21.4c3.8-4.2,7.8-8.3,12-12.1
					C691.6,338.6,697.9,334.2,701.9,341.4z"/>
				<path class="st0" d="M694.9,924.9L694,932c-3-0.4-6-1.5-9-3.6c-1.4-0.9-2.8-2.1-4.4-2.5c-2.1-0.5-3.3,1.8-4.2,3.5l-6.6-3.1
					c0.5-1.1,1-2.1,1.5-3.2c2.4-4.4,2.9-9.4,1.4-14.2c-4.6-18.9-4.4-38.6-5.8-57.9c-0.7-11.5-1.5-22.9-2.6-34.4v0
					c-1.6-17.4-3.8-34.7-7.1-51.9c-6.4-39-20.2-80.2-37.2-15.6c-4.9,21.3-7.1,43.2-7.8,65c0.2,6.4-1.3,14,0.7,20
					c1.3,0.5,2.6-1.9,3.5-3c5.7-7.2,9.2-16.6,16.3-22.6c4.5-2.8,10.1-2.3,15.3-1.6l-0.9,6.5c-2.8-0.4-5.7-0.5-8.2,0.6
					c-3.2,1.4-4.9,4.8-6.7,7.5c-2.7,3.9-5.3,7.9-7.9,11.9c-3.5,5.5-7.3,10.5-10.5,16.1c-1.7,3.2-1.7,7-1.6,10.6
					c-0.1,9.3,0.3,19.2-0.3,28.3c-0.8,9.8-1.9,20-6.1,29c-0.3,0.6-0.6,1.2-0.9,1.8c-3.5,6.9-10.6,13.2-18.8,10.4
					c-4.5-1.4-7.9-5-10.6-8.7c-1.4-1.6-2.5-4.6-4.9-4.8c-1.5,0.2-2.3,1.5-3.2,2.6c-2.9,4.6-5.8,9-9,13.4
					c-7.2,11.1-14.4,21.8-21.7,32.7c-6,9-12.7,18.1-17.1,28c-1.2,2.4-2.1,5.1-2.1,7.8l-7.5-0.2c0.1-6.9,2.8-14.1,8.3-20.8
					c11-16.4,21.8-33.1,32.7-49.5c15.1-25.1,18.2-16.9,10.6-46c-11.8-63.2-15.7-127.7-18.7-191.8c-0.3-0.8-0.6-1-0.9-1
					c0-0.8-0.1-1.5-0.3-2.3c0.6-4.8,0.9-9.5,0.6-14.1c0-2.6-0.2-5.2-0.3-7.8c0.3-1.4,0.4-2.7,0.3-4.2v0c1.2-9.4,0.7-18.9,1.2-28.3
					l7.4,0.4c-0.1,1.6-0.1,3.3,0.4,4.8c1-1.2,1.5-3.5,2.1-5.1c0.5-1.4,0.6-2.3,0.4-3h0c0,0.1,0.1,0.2,0.1,0.3
					c0.5,0.9,1.2,1.7,1.9,2.3c0.7,0.6,1.5,1.2,2.2,1.7c1.7,1.1,3.5,1.9,5.1,3.1c0.3,0.2,0.6,0.6,1,0.8c-2.5-0.6-4.6,0.9-5.7,4.7
					c-5.4,12.2-9.2,25-7.4,38.5c2,69.5,6.3,139.6,20.2,207.9c3.4,17.4,19.7,51.8,29.5,15.7c4.3-18.5,2-38.1,2.5-56.9v-0.2
					c0.2-38.8,1.1-78.3,12.5-115.7c4.7-17.4,21.1-42.1,35.9-17.4c8.5,16,10.9,34.4,14.3,52c6.1,33.3,8,67.1,10.1,100.8
					c1.7,16.6,0.2,34.9,9.6,49.4C688.8,922.6,691.9,924.4,694.9,924.9z"/>
				<path class="st0" d="M680.9,337.5l5.9,4.6c-4.2,3.8-8.1,7.9-12,12.1l-5.7-4.1C672.9,345.9,676.9,341.7,680.9,337.5z"/>
				<path class="st0" d="M674.3,270c5.5,0.1,9.6,4.2,9.5,9.6c-0.1,5.1-4,8.9-9.2,8.9c-5.2,0-9.2-4-9.2-9.2
					C665.5,274.3,669.6,270,674.3,270z"/>
				<path class="st0" d="M676.4,929.4c-0.1,0.1-0.1,0.2-0.2,0.3c-2.5,5.3-5.1,10.6-7.7,15.9l-6.4-3.1c2.6-5.4,5.2-10.8,7.7-16.2
					L676.4,929.4z"/>
				<path class="st0" d="M669.1,350.1l5.7,4.1c-6.4,7-12.5,14.4-18.8,21.4c-7.1,8-16,17-27.4,17c-12-0.5-21.3-8.7-29.3-18.9l6.3-3.4
					c1.5,2,3.3,4.5,4.9,5c3,1.1,4.3-5.6,6.3-7.1c3.3-4,9-5.6,14.1-4.3c5.7,1.2,9.3,6.4,11,11.7c1.2,3.1,3.3,2,5.3-0.4
					c3.5-4,7.1-8.1,10.7-12.2C661.5,358.6,665.2,354.4,669.1,350.1z"/>
				<path class="st0" d="M662,816.8c0.3,4.4-1.5,9.7-3.9,14.5c-25.3,52.9-50.4,106.1-75.7,159.2c-4.9,10.9-7.5,23.3-16.2,32
					c-9.2,9.8-24.4,13.2-36.6,7.2l-0.2-0.1c-12.6-6.6-19.6-17.6-19.4-29.2l7.5,0.2c0,0.6,0,1.2,0.1,1.8c2.8,16,25.2,24.7,38.3,15.7
					l0.2-0.1c3.1-2.1,5.7-5.4,7.7-9.1c12.6-23.8,23.7-48.5,35.3-72.9c3-5.8,5.8-11.7,8.6-17.6c1.2-2.7,2.5-5.3,3.8-7.9
					c3.1-6.8,6.8-13.6,9.8-20.4c9.2-19,18.5-38,27.4-57.2c1.5-3.8,3.1-7.3,4.7-11.1c1.7-3.7,1.8-6.9-2.9-7.7
					c-1.1-0.2-2.2-0.4-3.4-0.5l0.9-6.5c0.9,0.1,1.8,0.3,2.7,0.4C658.6,808,661.6,811.9,662,816.8z"/>
				<path class="st2" d="M650.4,814c4.7,0.8,4.7,4,2.9,7.7c-1.6,3.8-3.2,7.3-4.7,11.1c-9,19.2-18.2,38.1-27.4,57.2
					c-2.9,6.9-6.7,13.6-9.8,20.4c-1.3,2.6-2.5,5.3-3.8,7.9l-2-1c4.3-9,5.3-19.2,6.1-29c0.6-9.1,0.2-19,0.3-28.3
					c-0.1-3.6,0-7.3,1.6-10.6c3.2-5.6,7-10.6,10.5-16.1c2.6-4,5.2-7.9,7.9-11.9c1.9-2.7,3.6-6.2,6.7-7.5c2.5-1,5.4-0.9,8.2-0.6
					C648.1,813.6,649.3,813.8,650.4,814z"/>
				<path class="st0" d="M564.2,640.1c-0.4-0.2-0.7-0.5-1-0.8c-1.6-1.2-3.4-2-5.1-3.1c-0.8-0.5-1.5-1.1-2.2-1.7
					c-0.8-0.7-1.5-1.4-1.9-2.3c-0.1-0.1-0.1-0.2-0.1-0.3c-0.4-0.7-0.7-1.3-1.4-1.7c-0.3-0.2-0.6-0.3-0.9-0.1s-0.3,0.7-0.4,1.1
					c-0.1,1.2-0.2,2.6-0.3,4l-7.4-0.4c0-1,0.1-1.9,0.2-2.8c0.1-2.5,0.1-5-0.6-7.3c-1-3.6-3.9-6.5-6.5-9.2
					c-6.5-6.8-12.5-14.6-17.3-22.8c-16.9-28.3-16.7-63.3-9.6-94.6c6.9-30.3,19.4-59.2,34.4-86.4c1.5-3.7,5.9-9.7,9.2-15.3l7.2,2.2
					c-0.2,0.3-0.4,0.6-0.5,0.9c-37.2,62.6-76.7,157-12.5,215.3c15,14.6,45.6,38.8,67.3,37.6c18.7-6.9,0.6-35.5-8-44.8
					c-9-10.1-20.3-18.2-31.8-25.2c-9.7-8.9-19.7-19.1-20.2-33.1c-0.7-9.2,0.5-18.3,2.5-27.2c5.9-24.2,13.6-48.2,24-70.9
					c2.4-3.9,7.2-3.2,6.9,1.7c-7,27.6-41.5,92-16,114.8c5.9,5.8,6.9-6.8,12.7-4c4.8,4.8-3.7,12,3.7,17c17.4,12.6,34.1,28,41,49
					c4.5,12.2,0.8,29.4-14.2,31c-17.4,0.9-33.4-9.6-47.5-18.6c-0.8-0.6-1.6-1.2-2.5-1.6C564.9,640.3,564.6,640.3,564.2,640.1
					C564.2,640.1,564.2,640.1,564.2,640.1z"/>
				<path class="st0" d="M617.2,196l-5.6,4.7C597,182.1,580,165.8,559,154.5c-1.7-0.9-4-1.8-3.4,0.8c8.1,16.8,15.7,33.9,18.4,52.6
					c0.5,4.5,1.7,9.4,0.6,13.8c-1,3.7-5.1,3.7-6.5,0.2c-1.5-3.7-1.2-8.1-2-12c-2.8-17.8-9-34.6-17.3-50.4c-3.5-6.7-5.2,0.5-6.1,4.2
					c-2.2,8.8-4,17.6-5.5,26.5c-3.7,23.1-7.1,47.7-0.4,70.5c2.6,9.3,7.2,18.2,12,26.6c5.7,9.9,12.1,19.3,18.7,28.6l-5.7,4.1
					c-0.3-0.4-0.6-0.9-0.9-1.2c-4-5.5-7.9-11-11.6-16.7c-2.2-3.2-4.3-6.4-6.2-9.7c-10.9-18.1-18.7-37.9-18.4-59.5
					c0.4-23.9,4.5-47.7,10.1-71c2.9-13,9.2-25.4,24.6-15.6c21.6,11.4,40.7,27.3,55.5,46.8C615.7,194.1,616.4,195.1,617.2,196z"/>
				<path class="st2" d="M605.6,917.5l2,1c-2.8,5.9-5.6,11.8-8.6,17.6c-11.6,24.3-22.8,49.1-35.3,72.9c-2.1,3.7-4.6,7-7.7,9.1
					l-0.2,0.1c-13.1,9.1-35.4,0.4-38.3-15.7c-0.1-0.6-0.1-1.2-0.1-1.8c0-2.7,0.9-5.4,2.1-7.8c4.3-9.9,11-19,17.1-28
					c7.3-10.9,14.5-21.6,21.7-32.7c3.1-4.5,6-8.8,9-13.4c0.9-1.1,1.7-2.4,3.2-2.6c2.4,0.2,3.4,3.2,4.9,4.8c2.8,3.7,6.1,7.3,10.6,8.7
					c8.1,2.8,15.3-3.5,18.8-10.4C605,918.6,605.3,918.1,605.6,917.5z"/>
				<path class="st0" d="M605.6,370.3l-6.3,3.4c-8-10.2-14.6-22.5-21.1-30.9c-1.7-2.3-3.5-4.8-6.1-6.1c-6.7-3.4-9.3,3-9.6,9
					c-2.1,19.5,1.5,42.8,20,53.3c2.9,1.6,5.9,3.1,8.9,4.4l-4.3,6.2c-2.7-1.2-5.4-2.5-7.9-3.9c-3.9-2.2-7.4-4.9-10.6-8
					c-3-3-5.9-2.6-8.1,1l-7.2-2.2c2.8-4.7,4.8-9.1,3.7-11.9c-7.1-8.5-14.5-17.2-22.3-25.6l5.9-4.7c2.9,3.2,5.9,6.4,8.9,9.6
					c0.6,0.7,1.3,1.4,1.9,1.9c0.7,0.6,1.3,0.9,1.7,0.7l0.1,0c0.4-0.2,0.6-0.8,0.7-1.7c0.1-2,0.2-4.4,0.2-6.5
					c0.8-10.8-1.9-21.3-5.7-31.3c-14.7-41.3-42.1-67.4-84.2-79.5c-17.1-5.1-34.9-6.8-52.6-6.8c-31.1-0.1-62.1,5.8-93,1.6
					c-48.6-6.5-88.8-42.8-108.3-86.8c-0.9-1.9-2.2-5-4.8-3.8c-1.4,0.7-2.1,1.8-3.1,2.9c-2,2.6-3.7,5.4-5.4,8.3
					c-8.8,15.2-15,31.8-24.2,46.8c-6.9,10.6-15.8,19.6-24.8,28.4c-2.6,2.4-4.1,5.5-1.3,8.2c2.6,2.7,5.7,4.9,8.7,7.1
					c2.5,1.8,5.2,3.5,7.9,5.1l-3.6,6.5c-2.2-1.2-4.4-2.5-6.5-3.8c-7.3-6.2-18.8-11.4-17.3-20.2c2.3-6.6,9.3-11,13.9-16.2
					c8.5-8.5,16.1-17.8,21.6-28.5c8.1-13.9,21.3-52.5,37.6-54.5c6.7,1.3,8.4,12,11.9,17.5c24.7,50.1,74,80.1,129.9,76.3
					c35.1-1.7,70.9-6.7,105.5,1.5c34.4,7.2,66.8,26.8,85.3,56.9c2.3,3.8,4.4,7.7,6.3,11.8c2.8,5.7,5.2,11.7,7.4,17.8
					c0.8,3.4,3.9,7,7.1,3.9c2.2-1.8,1.1-4.7-0.4-7l5.7-4.1c10.9,15.2,22.3,30.1,32.2,46C601.7,364.7,603.6,367.5,605.6,370.3z"/>
				<path class="st0" d="M591.6,267.6c6.4,0,10.3,3.4,10.3,9.1c0,5.3-4.1,9.4-9.4,9.3c-5.1,0-9.2-4.1-9.2-9.3
					C583.3,271.9,587.2,267.5,591.6,267.6z"/>
				<path class="st2" d="M548.4,327c3.8,10.1,6.5,20.6,5.7,31.3c-0.1,2.1-0.1,4.5-0.2,6.5c-0.1,0.9-0.3,1.5-0.7,1.7l-0.1,0
					c-0.4,0.1-1-0.2-1.7-0.7c-0.6-0.5-1.3-1.3-1.9-1.9c-3-3.2-5.9-6.4-8.9-9.6c-4.9-5.4-9.9-10.7-15-15.8
					c-32.6-33.1-71.3-55.9-118.5-58c-43.1-2.6-85.7,6.3-128.7,7.4c-30.9,0.5-61.2-6.4-89.7-17.9c-8.7-3.4-17.5-7-25.6-11.7
					c-2.7-1.6-5.3-3.2-7.9-5.1c-3-2.2-6.1-4.4-8.7-7.1c-2.8-2.7-1.3-5.8,1.3-8.2c9-8.7,17.9-17.8,24.8-28.4
					c9.2-15,15.5-31.5,24.2-46.8c1.7-2.8,3.4-5.7,5.4-8.3c1-1.2,1.7-2.3,3.1-2.9c2.5-1.2,3.8,2,4.8,3.8
					c19.4,44,59.7,80.3,108.3,86.8c31,4.2,62-1.7,93-1.6c17.8,0,35.5,1.8,52.6,6.8C506.3,259.5,533.7,285.7,548.4,327z"/>
				<path class="st1" d="M553.8,631.9c0.2,0.7,0.1,1.6-0.4,3c-0.6,1.6-1.1,3.9-2.1,5.1c-0.5-1.5-0.5-3.2-0.4-4.8
					c0.1-1.4,0.3-2.7,0.3-4c0.1-0.4,0.1-0.8,0.4-1.1s0.6-0.1,0.9,0.1C553.1,630.7,553.4,631.2,553.8,631.9L553.8,631.9z"/>
				<path class="st0" d="M540.7,354.3l-5.9,4.7c-27.6-30-59.6-57.1-99.8-66.6c-60.2-13.9-121.5,8.2-182.1,2
					c-32.2-3.6-64.8-13.4-93.2-29.6l3.6-6.5c8.1,4.7,16.9,8.3,25.6,11.7c28.5,11.5,58.7,18.4,89.7,17.9c42.9-1.1,85.6-10,128.7-7.4
					c47.2,2.1,85.9,24.9,118.5,58C530.8,343.6,535.7,348.9,540.7,354.3z"/>
			</g>
			<g>
				<path class="st3" d="M540.7,354.3c2.9,3.2,5.9,6.4,8.9,9.6c0.6,0.7,1.3,1.4,1.9,1.9c0.7,0.6,1.3,0.9,1.7,0.7l0.1,0
					c0.4-0.2,0.6-0.8,0.7-1.7c0.1-2,0.2-4.4,0.2-6.5c0.8-10.8-1.9-21.3-5.7-31.3c-14.7-41.3-42.1-67.4-84.2-79.5
					c-17.1-5.1-34.9-6.8-52.6-6.8c-31.1-0.1-62.1,5.8-93,1.6c-48.6-6.5-88.8-42.8-108.3-86.8c-0.9-1.9-2.2-5-4.8-3.8
					c-1.4,0.7-2.1,1.8-3.1,2.9c-2,2.6-3.7,5.4-5.4,8.3c-8.8,15.2-15,31.8-24.2,46.8c-6.9,10.6-15.8,19.6-24.8,28.4
					c-2.6,2.4-4.1,5.5-1.3,8.2c2.6,2.7,5.7,4.9,8.7,7.1c2.5,1.8,5.2,3.5,7.9,5.1c8.1,4.7,16.9,8.3,25.6,11.7
					c28.5,11.5,58.7,18.4,89.7,17.9c42.9-1.1,85.6-10,128.7-7.4c47.2,2.1,85.9,24.9,118.5,58C530.8,343.6,535.7,348.9,540.7,354.3z"
					/>
			</g>
		</g>
		<g>
			<path class="st4" d="M498.3,821.5l63.6-186c-1.5-0.9-2.7-2.1-3.6-3.5c-1-0.7-1.9-1.5-2.6-2.4l-64.8,189.4
				c-9.8-1.9-18.5,1.4-20.8,8.2c-2.3,6.8,2.6,14.7,11.4,19.2l-2.3,6.8c-0.7,2,0.4,4.2,2.4,4.9c0.5,0.2,0.9,0.2,1.4,0.2
				c1.6,0,3-1,3.5-2.6l2.3-6.7c2.6,0.6,5.1,0.9,7.6,0.8c1.5,0,3-0.2,4.4-0.5c5.1-1.2,8.8-4.1,10.2-8.2c1.4-4,0.3-8.6-3.1-12.7
				C505.5,825.7,502.2,823.3,498.3,821.5z"/>
			<path class="st4" d="M587.2,552.7c-2-0.7-4.2,0.4-4.9,2.4l-5.8,16.9c2.9,0.6,5.2,2.1,6.8,4.1l6.3-18.5
				C590.3,555.5,589.3,553.3,587.2,552.7z"/>
			<path class="st4" d="M685.4,567.5l-3.1-9.1c-0.7-2-2.9-3.1-4.9-2.4c-2,0.7-3.1,2.9-2.4,4.9l4.1,12
				C680.4,570.4,682.5,568.4,685.4,567.5z"/>
			<path class="st4" d="M798.6,840.6c-1.4-4.1-5.2-7.1-10.5-8.3c-3.8-0.9-8.1-0.7-12.4,0.4l-71.6-208.5c-1.4,2.3-3.5,4.2-6.4,5.1
				l70.8,206c-9.2,4.6-14.2,12.7-11.8,19.8c2,5.9,8.7,9.1,16.7,8.9c1.6,0,3.2-0.2,4.8-0.6l2.5,7.2c0.6,1.6,2.1,2.7,3.8,2.6
				c0.4,0,0.8-0.1,1.1-0.2c2-0.7,3.1-2.9,2.4-4.9l-2.4-7C795.4,856.5,801.1,848,798.6,840.6z"/>
		</g>
	</g>
	<g>
		<path class="st5" d="M192,132.9c-3.2-3.8-7.5-9.2-10.6-13.1c-3-3.2-5.8-6.2-6.1-10.8c-0.2-1.5-0.3-3.1,0.1-5
			c0.1-0.3,0.4-0.5,0.7-0.5c3.3,1,5.7,2.7,7.9,5c2,2,2.5,5.1,3.6,7.7c2.2,5.3,4,10.7,5.3,16.3C192.9,133,192.2,133.3,192,132.9
			L192,132.9z"/>
		<path class="st5" d="M176.6,153.3c-5-4.2-9.7-8.6-13.5-14c-1.9-2.7-4.4-5.2-5.1-8.5c-0.8-3.5-0.9-6.8,0.4-10.4
			c0.1-0.3,0.4-0.4,0.7-0.3c1.8,1,3.1,2.3,4.2,3.5c3.6,3.4,4.6,7.7,6,12.2c1.1,2.8,2.4,5.6,3.8,8.4c1.3,2.9,2.8,5.6,4.2,8.5
			C177.5,153.2,177,153.6,176.6,153.3L176.6,153.3z"/>
		<path class="st5" d="M160.5,178.3c-5.7-4.6-11.1-9.6-15.7-15.4c-2.3-2.9-5.2-5.6-6.2-9.3c-1.2-3.8-1.7-7.5-0.8-11.6
			c0.1-0.3,0.4-0.5,0.7-0.4c1.9,1.1,3.4,2.5,4.7,3.9c4.1,3.7,5.7,8.6,7.7,13.6c1.5,3.1,3.2,6.2,4.9,9.3c1.7,3.1,3.6,6.2,5.4,9.4
			C161.4,178.1,160.9,178.6,160.5,178.3L160.5,178.3z"/>
		<path class="st5" d="M142.2,198.2c-4.5-4.5-9.2-8.7-14.4-12.4c-4.1-2.5-8.3-4.8-10.6-9.4c-0.9-1.5-1.7-3.1-2.1-5.1
			c-0.1-0.3,0.1-0.6,0.4-0.7c3.8,0,7,1.1,10.2,2.9c3,1.5,4.8,4.6,7,7.1c4.4,5,7.8,10.9,10.3,17.1
			C143.2,198.2,142.6,198.6,142.2,198.2L142.2,198.2z"/>
		<path class="st5" d="M130.3,223.6c-11.6-5.7-29.3-11.2-28.6-27c0-0.4,0.4-0.6,0.7-0.5c7.2,2.4,10.7,7.1,14.5,12.8
			c4.3,4.7,9.5,9.2,13.9,14C131.2,223.3,130.7,223.9,130.3,223.6L130.3,223.6z"/>
	</g>
</g>
</svg>
